<?xml version="1.0" encoding="UTF-8" standalone="no"?>
<svg
   width="16"
   height="16"
   fill="currentColor"
   class="bi bi-briefcase-fill"
   viewBox="0 0 16 16"
   version="1.1"
   id="svg202"
   sodipodi:docname="icon-projects-hover.svg"
   inkscape:version="1.2.1 (ef4d3fba62, 2022-07-19, custom)"
   xmlns:inkscape="http://www.inkscape.org/namespaces/inkscape"
   xmlns:sodipodi="http://sodipodi.sourceforge.net/DTD/sodipodi-0.dtd"
   xmlns="http://www.w3.org/2000/svg"
   xmlns:svg="http://www.w3.org/2000/svg">
  <defs
     id="defs206" />
  <sodipodi:namedview
     id="namedview204"
     pagecolor="#505050"
     bordercolor="#ffffff"
     borderopacity="1"
     inkscape:showpageshadow="0"
     inkscape:pageopacity="0"
     inkscape:pagecheckerboard="1"
     inkscape:deskcolor="#505050"
     showgrid="false"
     inkscape:zoom="50.8125"
     inkscape:cx="7.5276753"
     inkscape:cy="9.5940959"
     inkscape:window-width="1854"
     inkscape:window-height="1016"
     inkscape:window-x="0"
     inkscape:window-y="0"
     inkscape:window-maximized="1"
     inkscape:current-layer="svg202" />
  <path
     d="M 6.5,0.75 C 5.6715729,0.75 5,1.4215729 5,2.25 v 1 H 1.5 C 0.67157288,3.25 0,3.9215729 0,4.75 v 1.584 l 7.614,2.03 c 0.252926,0.067355 0.519074,0.067355 0.772,0 L 16,6.334 V 4.75 C 16,3.9215729 15.328427,3.25 14.5,3.25 H 11 v -1 C 11,1.4215729 10.328427,0.75 9.5,0.75 Z m 0,1 h 3 c 0.2761424,0 0.5,0.2238576 0.5,0.5 v 1 H 6 v -1 C 6,1.9738576 6.2238576,1.75 6.5,1.75 Z"
     id="path198"
     style="fill:#f5f5f5;fill-opacity:1"
     sodipodi:nodetypes="sscssccccsscssssssccss" />
  <path
     d="m 0,13.75 c 0,0.828427 0.67157288,1.5 1.5,1.5 h 13 c 0.828427,0 1.5,-0.671573 1.5,-1.5 V 8.0995 l -7.871,2.097 c -0.084519,0.02257 -0.1734808,0.02257 -0.258,0 L 0,8.0995 Z"
     id="path200"
     style="fill:#f5f5f5;fill-opacity:1"
     sodipodi:nodetypes="ssssccccs" />
</svg>
