<?xml version="1.0" encoding="UTF-8" standalone="no"?>
<svg
   width="16"
   height="16"
   fill="currentColor"
   class="bi bi-box-arrow-up-right"
   viewBox="0 0 16 16"
   version="1.1"
   id="svg22"
   sodipodi:docname="box-arrow-up-right.svg"
   inkscape:version="1.2.1 (ef4d3fba62, 2022-07-19, custom)"
   xmlns:inkscape="http://www.inkscape.org/namespaces/inkscape"
   xmlns:sodipodi="http://sodipodi.sourceforge.net/DTD/sodipodi-0.dtd"
   xmlns="http://www.w3.org/2000/svg"
   xmlns:svg="http://www.w3.org/2000/svg">
  <defs
     id="defs26" />
  <sodipodi:namedview
     id="namedview24"
     pagecolor="#505050"
     bordercolor="#ffffff"
     borderopacity="1"
     inkscape:showpageshadow="0"
     inkscape:pageopacity="0"
     inkscape:pagecheckerboard="1"
     inkscape:deskcolor="#505050"
     showgrid="false"
     showguides="true"
     inkscape:zoom="22.627417"
     inkscape:cx="-2.1434174"
     inkscape:cy="12.175495"
     inkscape:window-width="1854"
     inkscape:window-height="1016"
     inkscape:window-x="0"
     inkscape:window-y="0"
     inkscape:window-maximized="1"
     inkscape:current-layer="svg22" />
  <g
     id="g1108"
     transform="translate(0,-2.7209999)">
    <path
       fill-rule="evenodd"
       d="M 10.39094,3.6595043 A 0.60160608,0.60245982 0 0 0 9.7893342,3.0570444 H 1.8048182 A 1.8048182,1.8073795 0 0 0 0,4.864424 V 16.91362 A 1.8048182,1.8073795 0 0 0 1.8048182,18.721 H 13.83694 a 1.8048182,1.8073795 0 0 0 1.804818,-1.80738 V 8.9177736 a 0.60160608,0.60245982 0 0 0 -1.203212,0 V 16.91362 A 0.60160608,0.60245982 0 0 1 13.83694,17.51608 H 1.8048182 A 0.60160608,0.60245982 0 0 1 1.2032122,16.91362 V 4.864424 a 0.60160608,0.60245982 0 0 1 0.601606,-0.6024599 h 7.984516 A 0.60160608,0.60245982 0 0 0 10.39094,3.6595043 Z"
       id="path18"
       style="fill:#f5f5f5;fill-opacity:1;stroke-width:1.20407" />
    <path
       fill-rule="evenodd"
       d="M 15.81939,3.2409305 A 0.33883992,0.33932077 0 0 0 15.48055,2.9016098 h -3.388399 a 0.33883992,0.33932077 0 0 0 0,0.6786415 h 2.57044 L 9.141534,9.1084655 A 0.33926808,0.33974954 0 1 0 9.6213313,9.5889441 L 15.141711,4.060051 v 2.5740872 a 0.33884018,0.33932104 0 0 0 0.677679,0 z"
       id="path20"
       style="fill:#f5f5f5;fill-opacity:1;stroke:#f5f5f5;stroke-width:0.36122;stroke-dasharray:none;stroke-opacity:1" />
    <g
       id="g539"
       transform="matrix(0.60174767,0.60260162,-0.60174767,0.60260162,15.865756,-4.2909667)"
       style="fill:#f5f5f5;fill-opacity:1">
      <path
         d="m 4.2755018,18.202328 h -2.354 a 3,3 0 0 0 0,5.999999 h 3 a 3,3 0 0 0 2.83,-3.999999 h -0.83 c -0.086,0 -0.17,0.01 -0.25,0.031 a 2,2 0 0 1 -1.75,2.968999 h -3 a 2,2 0 1 1 0,-3.999999 h 1.535 c 0.218,-0.376 0.495,-0.714 0.82,-1 z"
         id="path329"
         style="fill:#f5f5f5;fill-opacity:1" />
      <path
         d="m 6.9215018,18.202328 a 3,3 0 0 0 -2.83,3.999999 h 1.098 a 2,2 0 0 1 1.732,-2.999999 h 3 a 2,2 0 1 1 0,3.999999 h -1.535 a 4.02,4.02 0 0 1 -0.82,1 h 2.355 a 3,3 0 1 0 0,-5.999999 z"
         id="path331"
         style="fill:#f5f5f5;fill-opacity:1" />
    </g>
  </g>
</svg>
