<?xml version="1.0" encoding="UTF-8" standalone="no"?>
<svg
   width="16"
   height="16"
   fill="currentColor"
   class="bi bi-chat-dots-fill"
   viewBox="0 0 16 16"
   version="1.1"
   id="svg893"
   sodipodi:docname="icon-social-hover.svg"
   inkscape:version="1.2.1 (ef4d3fba62, 2022-07-19, custom)"
   xmlns:inkscape="http://www.inkscape.org/namespaces/inkscape"
   xmlns:sodipodi="http://sodipodi.sourceforge.net/DTD/sodipodi-0.dtd"
   xmlns="http://www.w3.org/2000/svg"
   xmlns:svg="http://www.w3.org/2000/svg">
  <defs
     id="defs897" />
  <sodipodi:namedview
     id="namedview895"
     pagecolor="#505050"
     bordercolor="#ffffff"
     borderopacity="1"
     inkscape:showpageshadow="0"
     inkscape:pageopacity="0"
     inkscape:pagecheckerboard="1"
     inkscape:deskcolor="#505050"
     showgrid="false"
     inkscape:zoom="49.25"
     inkscape:cx="7.5228426"
     inkscape:cy="8.0304569"
     inkscape:window-width="1854"
     inkscape:window-height="1016"
     inkscape:window-x="0"
     inkscape:window-y="0"
     inkscape:window-maximized="1"
     inkscape:current-layer="svg893" />
  <path
     d="M 16,7.5010301 C 16,11.643742 12.418,15.00206 8,15.00206 A 9.06,9.7084763 0 0 1 5.653,14.674158 C 5.069,14.991345 3.728,15.6 1.472,15.996483 1.272,16.030773 1.12,15.807885 1.199,15.608572 1.553,14.712735 1.873,13.519 1.969,12.430279 0.744,11.112241 0,9.3870035 0,7.5010301 0,3.3583183 3.582,-7.2469907e-8 8,-7.2469907e-8 12.418,-7.2469907e-8 16,3.3583183 16,7.5010301 Z m -11,0 a 1,1.0715757 0 1 0 -2,0 1,1.0715757 0 0 0 2,0 z m 4,0 a 1,1.0715757 0 1 0 -2,0 1,1.0715757 0 0 0 2,0 z m 3,1.0715758 a 1,1.0715757 0 1 0 0,-2.1431515 1,1.0715758 0 0 0 0,2.1431515 z"
     id="path891"
     style="fill:#f5f5f5;fill-opacity:1;stroke-width:1.03517" />
</svg>
