<?xml version="1.0" encoding="UTF-8" standalone="no"?>
<svg
   width="16"
   height="16"
   fill="currentColor"
   class="bi bi-info-square"
   viewBox="0 0 16 16"
   version="1.1"
   id="svg22"
   sodipodi:docname="info-square.svg"
   inkscape:version="1.2.1 (ef4d3fba62, 2022-07-19, custom)"
   xmlns:inkscape="http://www.inkscape.org/namespaces/inkscape"
   xmlns:sodipodi="http://sodipodi.sourceforge.net/DTD/sodipodi-0.dtd"
   xmlns="http://www.w3.org/2000/svg"
   xmlns:svg="http://www.w3.org/2000/svg">
  <defs
     id="defs26" />
  <sodipodi:namedview
     id="namedview24"
     pagecolor="#505050"
     bordercolor="#ffffff"
     borderopacity="1"
     inkscape:showpageshadow="0"
     inkscape:pageopacity="0"
     inkscape:pagecheckerboard="1"
     inkscape:deskcolor="#505050"
     showgrid="false"
     inkscape:zoom="49.25"
     inkscape:cx="7.9492386"
     inkscape:cy="8.0101523"
     inkscape:window-width="1854"
     inkscape:window-height="1016"
     inkscape:window-x="0"
     inkscape:window-y="0"
     inkscape:window-maximized="1"
     inkscape:current-layer="svg22" />
  <path
     d="M14 1a1 1 0 0 1 1 1v12a1 1 0 0 1-1 1H2a1 1 0 0 1-1-1V2a1 1 0 0 1 1-1h12zM2 0a2 2 0 0 0-2 2v12a2 2 0 0 0 2 2h12a2 2 0 0 0 2-2V2a2 2 0 0 0-2-2H2z"
     id="path18"
     style="fill:#f5f5f5;fill-opacity:1" />
  <path
     d="M 9.2646951,6.174161 6.3251466,6.5425673 6.2198876,7.0303527 6.7975282,7.1368952 C 7.17492,7.2267504 7.2493714,7.3628169 7.1672181,7.738925 l -0.9473305,4.451683 c -0.2490272,1.15143 0.1347828,1.693129 1.0371857,1.693129 0.6995869,0 1.5121346,-0.323479 1.8805408,-0.76762 L 9.250575,12.58212 c -0.2567292,0.225922 -0.6315537,0.315777 -0.8805809,0.315777 -0.3530026,0 -0.4813672,-0.247744 -0.3902283,-0.684183 z m 0.089855,-2.680252 a 1.2836457,1.2836457 0 1 1 -2.5672913,0 1.2836456,1.2836456 0 0 1 2.5672913,0 z"
     id="path20"
     style="fill:#f5f5f5;fill-opacity:1;stroke-width:1.28365" />
</svg>
