<?xml version="1.0" encoding="UTF-8" standalone="no"?>
<svg
   width="16"
   height="16"
   fill="currentColor"
   class="bi bi-arrow-up-square"
   viewBox="0 0 16 16"
   version="1.1"
   id="svg200"
   sodipodi:docname="arrow-up-square.svg"
   inkscape:version="1.2.1 (ef4d3fba62, 2022-07-19, custom)"
   xmlns:inkscape="http://www.inkscape.org/namespaces/inkscape"
   xmlns:sodipodi="http://sodipodi.sourceforge.net/DTD/sodipodi-0.dtd"
   xmlns="http://www.w3.org/2000/svg"
   xmlns:svg="http://www.w3.org/2000/svg">
  <defs
     id="defs204" />
  <sodipodi:namedview
     id="namedview202"
     pagecolor="#505050"
     bordercolor="#ffffff"
     borderopacity="1"
     inkscape:showpageshadow="0"
     inkscape:pageopacity="0"
     inkscape:pagecheckerboard="1"
     inkscape:deskcolor="#505050"
     showgrid="false"
     inkscape:zoom="17.964932"
     inkscape:cx="6.9301683"
     inkscape:cy="9.6577044"
     inkscape:window-width="1854"
     inkscape:window-height="1016"
     inkscape:window-x="0"
     inkscape:window-y="0"
     inkscape:window-maximized="1"
     inkscape:current-layer="svg200" />
  <path
     fill-rule="evenodd"
     d="m -5e-7,1.9999992 c 0,-1.10456925 0.895431,-1.99999945 2,-1.99999945 H 14 c 1.104569,0 2,0.8954302 2,1.99999945 V 14 c 0,1.104569 -0.895431,2 -2,2 H 1.9999995 c -1.104569,0 -2,-0.895431 -2,-2 z"
     id="path198-3"
     style="fill:#0d1017;fill-opacity:1"
     sodipodi:nodetypes="sssssssss" />
  <path
     fill-rule="evenodd"
     d="M15 2a1 1 0 0 0-1-1H2a1 1 0 0 0-1 1v12a1 1 0 0 0 1 1h12a1 1 0 0 0 1-1V2zM0 2a2 2 0 0 1 2-2h12a2 2 0 0 1 2 2v12a2 2 0 0 1-2 2H2a2 2 0 0 1-2-2V2zm8.5 9.5a.5.5 0 0 1-1 0V5.707L5.354 7.854a.5.5 0 1 1-.708-.708l3-3a.5.5 0 0 1 .708 0l3 3a.5.5 0 0 1-.708.708L8.5 5.707V11.5z"
     id="path198"
     style="fill:#f5f5f5;fill-opacity:1" />
</svg>
