<?xml version="1.0" encoding="UTF-8" standalone="no"?>
<svg
   width="16"
   height="16"
   fill="currentColor"
   class="bi bi-person"
   viewBox="0 0 16 16"
   version="1.1"
   id="svg907"
   sodipodi:docname="icon-resume-hover.svg"
   inkscape:version="1.2.1 (ef4d3fba62, 2022-07-19, custom)"
   xmlns:inkscape="http://www.inkscape.org/namespaces/inkscape"
   xmlns:sodipodi="http://sodipodi.sourceforge.net/DTD/sodipodi-0.dtd"
   xmlns="http://www.w3.org/2000/svg"
   xmlns:svg="http://www.w3.org/2000/svg">
  <defs
     id="defs911" />
  <sodipodi:namedview
     id="namedview909"
     pagecolor="#505050"
     bordercolor="#ffffff"
     borderopacity="1"
     inkscape:showpageshadow="0"
     inkscape:pageopacity="0"
     inkscape:pagecheckerboard="1"
     inkscape:deskcolor="#505050"
     showgrid="false"
     inkscape:zoom="32"
     inkscape:cx="7.03125"
     inkscape:cy="8.484375"
     inkscape:window-width="1854"
     inkscape:window-height="1016"
     inkscape:window-x="0"
     inkscape:window-y="0"
     inkscape:window-maximized="1"
     inkscape:current-layer="svg907" />
  <path
     d="M 8,8 C 11.999998,8 11.999998,2 8,2 4.0000017,2 4.0000017,8 8,8 Z m 6,5 v 2.5 c -0.0024,0.09929 -11.9981074,0.08826 -12,0 V 13 c 0,-1 1,-4 6,-4 5,0 6,3 6,4 z"
     id="path905"
     style="fill:#f5f5f5;fill-opacity:1"
     sodipodi:nodetypes="ssssccsss" />
  <path
     d="M 2,0 C 0.89543,0 0,0.8954305 0,2 v 12 c 0,1.104569 0.895431,2 2,2 h 12 c 1.104569,0 2,-0.895431 2,-2 V 2 C 16,0.8954305 15.10457,0 14,0 Z m 12,0.99999999 c 0.552285,0 1,0.44771521 1,1.00000001 v 12 c 0,0.552285 -1,1 -1,1 H 2 C 2,15 1,14.552285 1,14 V 2 C 1,1.4477152 1.447715,0.99999999 2,0.99999999 Z"
     id="path200"
     style="fill:#f5f5f5;fill-opacity:1"
     sodipodi:nodetypes="ssssssssssssccssss" />
</svg>
