<?xml version="1.0" encoding="UTF-8" standalone="no"?>
<svg
   width="16"
   height="16"
   fill="currentColor"
   class="bi bi-arrow-up-square-fill"
   viewBox="0 0 16 16"
   version="1.1"
   id="svg1014"
   sodipodi:docname="arrow-up-square-fill.svg"
   inkscape:version="1.2.1 (ef4d3fba62, 2022-07-19, custom)"
   xmlns:inkscape="http://www.inkscape.org/namespaces/inkscape"
   xmlns:sodipodi="http://sodipodi.sourceforge.net/DTD/sodipodi-0.dtd"
   xmlns="http://www.w3.org/2000/svg"
   xmlns:svg="http://www.w3.org/2000/svg">
  <defs
     id="defs1018" />
  <sodipodi:namedview
     id="namedview1016"
     pagecolor="#505050"
     bordercolor="#ffffff"
     borderopacity="1"
     inkscape:showpageshadow="0"
     inkscape:pageopacity="0"
     inkscape:pagecheckerboard="1"
     inkscape:deskcolor="#505050"
     showgrid="false"
     inkscape:zoom="34.825009"
     inkscape:cx="4.7523319"
     inkscape:cy="7.5951165"
     inkscape:window-width="1854"
     inkscape:window-height="1016"
     inkscape:window-x="0"
     inkscape:window-y="0"
     inkscape:window-maximized="1"
     inkscape:current-layer="svg1014" />
  <path
     d="M 1.9999997,16 C 0.89543025,16 -2.5e-7,15.104569 -2.5e-7,14 V 2 c 0,-1.104569 0.8954305,-2 1.99999995,-2 H 14 c 1.104569,0 2,0.895431 2,2 v 12 c 0,1.104569 -0.895431,2 -2,2 z"
     id="path1012-6"
     style="fill:#0d1017;fill-opacity:1"
     sodipodi:nodetypes="sssssssss" />
  <path
     d="M2 16a2 2 0 0 1-2-2V2a2 2 0 0 1 2-2h12a2 2 0 0 1 2 2v12a2 2 0 0 1-2 2H2zm6.5-4.5V5.707l2.146 2.147a.5.5 0 0 0 .708-.708l-3-3a.5.5 0 0 0-.708 0l-3 3a.5.5 0 1 0 .708.708L7.5 5.707V11.5a.5.5 0 0 0 1 0z"
     id="path1012"
     style="fill:#f5f5f5;fill-opacity:1" />
</svg>
