<?xml version="1.0" encoding="UTF-8" standalone="no"?>
<svg
   width="16"
   height="16"
   fill="currentColor"
   class="bi bi-chat-square"
   viewBox="0 0 16 16"
   version="1.1"
   id="svg1609"
   sodipodi:docname="chat-square.svg"
   inkscape:version="1.2.1 (ef4d3fba62, 2022-07-19, custom)"
   xmlns:inkscape="http://www.inkscape.org/namespaces/inkscape"
   xmlns:sodipodi="http://sodipodi.sourceforge.net/DTD/sodipodi-0.dtd"
   xmlns="http://www.w3.org/2000/svg"
   xmlns:svg="http://www.w3.org/2000/svg">
  <defs
     id="defs1613" />
  <sodipodi:namedview
     id="namedview1611"
     pagecolor="#505050"
     bordercolor="#ffffff"
     borderopacity="1"
     inkscape:showpageshadow="0"
     inkscape:pageopacity="0"
     inkscape:pagecheckerboard="1"
     inkscape:deskcolor="#505050"
     showgrid="false"
     showguides="true"
     inkscape:zoom="24.625"
     inkscape:cx="4.9340102"
     inkscape:cy="5.6649746"
     inkscape:window-width="1854"
     inkscape:window-height="1016"
     inkscape:window-x="0"
     inkscape:window-y="0"
     inkscape:window-maximized="1"
     inkscape:current-layer="svg1609" />
  <path
     d="M14 1a1 1 0 0 1 1 1v8a1 1 0 0 1-1 1h-2.5a2 2 0 0 0-1.6.8L8 14.333 6.1 11.8a2 2 0 0 0-1.6-.8H2a1 1 0 0 1-1-1V2a1 1 0 0 1 1-1h12zM2 0a2 2 0 0 0-2 2v8a2 2 0 0 0 2 2h2.5a1 1 0 0 1 .8.4l1.9 2.533a1 1 0 0 0 1.6 0l1.9-2.533a1 1 0 0 1 .8-.4H14a2 2 0 0 0 2-2V2a2 2 0 0 0-2-2H2z"
     id="path1607"
     style="fill:#f5f5f5;fill-opacity:1" />
  <path
     d="m 8.0887355,9.3121158 a 1.3351232,0.90362978 0 0 0 -0.015169,0.1232214 c 0,0.2087931 0.2124065,0.3477609 0.5057292,0.3477609 0.2690473,0 0.4976366,-0.117746 0.5613587,-0.3265391 l 0.560346,-1.8503872 h 1.2177936 c 0.425823,0 0.624069,-0.1601887 0.624069,-0.374459 0,-0.2135849 -0.190155,-0.3628209 -0.624069,-0.3628209 H 9.9225092 L 10.444421,5.1410426 h 1.279493 c 0.434926,0 0.625081,-0.1553977 0.625081,-0.374459 0,-0.2142702 -0.190155,-0.3587135 -0.625081,-0.3587135 H 10.66593 L 11.147384,2.8306252 A 1.0721444,0.72564209 0 0 0 11.163563,2.7183564 0.51584305,0.34912968 0 0 0 10.641651,2.3651192 0.54618675,0.36966672 0 0 0 10.096477,2.6594829 L 9.5674884,4.4078701 H 7.3068828 L 7.7893479,2.8306252 c 0.00806,-0.027386 0.015169,-0.080777 0.015169,-0.1122688 A 0.51786596,0.35049882 0 0 0 7.2755249,2.3651192 0.54517531,0.36898216 0 0 0 6.7384415,2.6594829 L 6.2074269,4.4078701 H 5.0786407 c -0.434927,0 -0.6240697,0.1506049 -0.6240697,0.3641898 0,0.213585 0.1891427,0.3689827 0.6240697,0.3689827 H 5.9950203 L 5.4741196,6.8682074 H 4.2644173 c -0.4258232,0 -0.6159769,0.1499205 -0.6159769,0.3635054 0,0.2142703 0.1901537,0.374459 0.6169881,0.374459 h 0.9871819 l -0.5219106,1.705944 c -0.00806,0.027386 -0.015169,0.085572 -0.015169,0.1232214 0,0.2087931 0.2124054,0.3477609 0.505728,0.3477609 0.2680361,0 0.4976366,-0.117746 0.5603474,-0.3265391 L 6.3429637,7.6061718 H 8.6106501 L 8.0897507,9.3121158 Z M 7.0772784,5.130089 H 9.36924 L 8.8483393,6.8846373 H 6.540195 L 7.0782896,5.130089 Z"
     id="path3200"
     style="fill:#f5f5f5;fill-opacity:1;stroke-width:0.832113" />
</svg>
