<?xml version="1.0" encoding="UTF-8" standalone="no"?>
<svg
   width="99.800003"
   height="100"
   viewBox="0 0 99.800003 100"
   version="1.1"
   id="svg51"
   sodipodi:docname="jwt.svg"
   inkscape:version="1.2 (56b05e47e7, 2022-06-09, custom)"
   xmlns:inkscape="http://www.inkscape.org/namespaces/inkscape"
   xmlns:sodipodi="http://sodipodi.sourceforge.net/DTD/sodipodi-0.dtd"
   xmlns="http://www.w3.org/2000/svg"
   xmlns:svg="http://www.w3.org/2000/svg"
   xmlns:rdf="http://www.w3.org/1999/02/22-rdf-syntax-ns#"
   xmlns:cc="http://creativecommons.org/ns#"
   xmlns:dc="http://purl.org/dc/elements/1.1/">
  <sodipodi:namedview
     id="namedview53"
     pagecolor="#505050"
     bordercolor="#ffffff"
     borderopacity="1"
     inkscape:showpageshadow="0"
     inkscape:pageopacity="0"
     inkscape:pagecheckerboard="1"
     inkscape:deskcolor="#505050"
     showgrid="false"
     inkscape:zoom="3.94"
     inkscape:cx="50.126904"
     inkscape:cy="50.126904"
     inkscape:window-width="1854"
     inkscape:window-height="1016"
     inkscape:window-x="0"
     inkscape:window-y="0"
     inkscape:window-maximized="1"
     inkscape:current-layer="svg51" />
  <!-- Generator: Sketch 3.3.2 (12043) - http://www.bohemiancoding.com/sketch -->
  <title
     id="title18">Group</title>
  <desc
     id="desc20">Created with Sketch.</desc>
  <defs
     id="defs22" />
  <g
     id="g410"
     transform="translate(-50.1,-50)">
    <path
       d="M 107.5,76.9 V 50 h -15 v 26.9 l 7.5,10.3 z"
       fill="#ffffff"
       id="path25"
       style="fill-rule:evenodd;stroke:none;stroke-width:1" />
    <path
       d="M 92.5,123.1 V 150 h 15 V 123.1 L 100,112.8 Z"
       fill="#ffffff"
       id="path27"
       style="fill-rule:evenodd;stroke:none;stroke-width:1" />
    <path
       d="m 107.5,123.1 15.8,21.8 12.2,-8.9 -15.9,-21.7 -12.1,-4 z"
       fill="#00f2e6"
       id="path29"
       style="fill-rule:evenodd;stroke:none;stroke-width:1" />
    <path
       d="M 92.5,76.9 76.7,55.1 64.5,64 l 15.9,21.7 12.1,4 z"
       fill="#00f2e6"
       id="path31"
       style="fill-rule:evenodd;stroke:none;stroke-width:1" />
    <path
       d="M 80.4,85.7 54.8,77.4 50.1,91.7 75.7,100 87.9,96.1 Z"
       fill="#00b9f1"
       id="path33"
       style="fill-rule:evenodd;stroke:none;stroke-width:1" />
    <path
       d="m 112.1,103.9 7.5,10.4 25.6,8.3 4.7,-14.3 -25.6,-8.3 z"
       fill="#00b9f1"
       id="path35"
       style="fill-rule:evenodd;stroke:none;stroke-width:1" />
    <path
       d="m 124.3,100 25.6,-8.3 -4.7,-14.3 -25.6,8.3 -7.5,10.4 z"
       fill="#d63aff"
       id="path37"
       style="fill-rule:evenodd;stroke:none;stroke-width:1" />
    <path
       d="m 75.7,100 -25.6,8.3 4.7,14.3 25.6,-8.3 7.5,-10.4 z"
       fill="#d63aff"
       id="path39"
       style="fill-rule:evenodd;stroke:none;stroke-width:1" />
    <path
       d="M 80.4,114.3 64.5,136 76.7,144.9 92.5,123.1 V 110.3 Z"
       fill="#fb015b"
       id="path41"
       style="fill-rule:evenodd;stroke:none;stroke-width:1" />
    <path
       d="M 119.6,85.7 135.5,64 123.3,55.1 107.5,76.9 v 12.8 z"
       fill="#fb015b"
       id="path43"
       style="fill-rule:evenodd;stroke:none;stroke-width:1" />
  </g>
  <metadata
     id="metadata412">
    <rdf:RDF>
      <cc:Work
         rdf:about="">
        <dc:title>Group</dc:title>
      </cc:Work>
    </rdf:RDF>
  </metadata>
</svg>
