<?xml version="1.0" encoding="UTF-8" standalone="no"?>
<svg
   viewBox="0 0 121.19048 100"
   enable-background="new 0 0 101.7 84"
   version="1.1"
   id="svg6"
   sodipodi:docname="logo-bem.svg"
   inkscape:version="1.1.2 (0a00cf5339, 2022-02-04)"
   width="121.19048"
   height="100"
   xmlns:inkscape="http://www.inkscape.org/namespaces/inkscape"
   xmlns:sodipodi="http://sodipodi.sourceforge.net/DTD/sodipodi-0.dtd"
   xmlns="http://www.w3.org/2000/svg"
   xmlns:svg="http://www.w3.org/2000/svg">
  <defs
     id="defs10" />
  <sodipodi:namedview
     id="namedview8"
     pagecolor="#ffffff"
     bordercolor="#666666"
     borderopacity="1.0"
     inkscape:pageshadow="2"
     inkscape:pageopacity="0.0"
     inkscape:pagecheckerboard="0"
     showgrid="false"
     inkscape:zoom="5.0238095"
     inkscape:cx="37.521327"
     inkscape:cy="47.07583"
     inkscape:window-width="1852"
     inkscape:window-height="1016"
     inkscape:window-x="0"
     inkscape:window-y="0"
     inkscape:window-maximized="1"
     inkscape:current-layer="svg6"
     fit-margin-top="0"
     fit-margin-left="0"
     fit-margin-right="0"
     fit-margin-bottom="0" />
  <g
     fill="#fefefe"
     id="g4"
     transform="scale(1.1904762)"
     style="fill:#808080">
    <path
       d="m 0,13 h 23.8 v 7 H 0 Z M 0,0 H 23.8 V 7 H 0 Z M 42.7,25.9 H 0 v 7 h 41.1 c 4.5,0 15,0.1 18.9,6.4 V 35.4 C 58.1,29.2 52.5,25.9 42.7,25.9 Z m 0.1,13 H 0 v 7 h 41.1 c 10,0 16.3,0.4 18.9,1.8 V 44.6 C 58,39.7 49.6,38.9 42.8,38.9 Z m -0.1,33 H 0 v -7 h 41.1 c 4.5,0 15,-0.1 18.9,-6.4 v 3.9 c -1.9,6.2 -7.5,9.5 -17.3,9.5 z m 0.1,-13 H 0 v -7 h 41.1 c 10,0 16.3,-0.4 18.9,-1.8 v 3.1 c -2,4.9 -10.4,5.7 -17.2,5.7 z M 70.4,84 h 31.4 V 79.7 H 71.3 c -2.7,0 -9.1,-0.1 -11.4,-3.8 v 2.4 C 61,82 64.4,84 70.4,84 Z m -0.1,-7.9 h 31.4 V 71.8 H 71.3 c -6.1,0 -9.9,-0.2 -11.4,-1.1 v 1.9 c 1.2,3 6.3,3.5 10.4,3.5 z"
       id="path2"
       style="fill:#808080" />
  </g>
</svg>
