<?xml version="1.0" encoding="UTF-8" standalone="no"?>
<!-- Generator: Adobe Illustrator 23.0.1, SVG Export Plug-In . SVG Version: 6.00 Build 0)  -->

<svg
   version="1.1"
   id="Layer_1"
   x="0px"
   y="0px"
   viewBox="0 0 118.76649 100"
   xml:space="preserve"
   sodipodi:docname="logo-browserify.svg"
   width="118.76649"
   height="100"
   inkscape:version="1.1.1 (eb90963e84, 2021-10-02)"
   xmlns:inkscape="http://www.inkscape.org/namespaces/inkscape"
   xmlns:sodipodi="http://sodipodi.sourceforge.net/DTD/sodipodi-0.dtd"
   xmlns="http://www.w3.org/2000/svg"
   xmlns:svg="http://www.w3.org/2000/svg"><defs
   id="defs64">
	
</defs><sodipodi:namedview
   id="namedview62"
   pagecolor="#ffffff"
   bordercolor="#666666"
   borderopacity="1.0"
   inkscape:pageshadow="2"
   inkscape:pageopacity="0.0"
   inkscape:pagecheckerboard="0"
   showgrid="false"
   fit-margin-top="0"
   fit-margin-left="0"
   fit-margin-right="0"
   fit-margin-bottom="0"
   inkscape:zoom="3.376"
   inkscape:cx="59.982228"
   inkscape:cy="36.877962"
   inkscape:window-width="1860"
   inkscape:window-height="1016"
   inkscape:window-x="60"
   inkscape:window-y="27"
   inkscape:window-maximized="1"
   inkscape:current-layer="Layer_1" />
<style
   type="text/css"
   id="style2">
	.st0{fill:#3D6A92;}
	.st1{fill:#E6B359;stroke:#FFFFFF;stroke-width:0.3799;stroke-opacity:0;}
	.st2{fill:#E6B359;stroke:#FFFFFF;stroke-width:0.2587;stroke-opacity:0;}
	.st3{fill:#E6B359;stroke:#FFFFFF;stroke-width:0.3221;stroke-opacity:0;}
	.st4{fill:#E6B359;stroke:#FFFFFF;stroke-width:0.3305;stroke-opacity:0;}
	.st5{fill:#E6B359;stroke:#FFFFFF;stroke-width:0.2925;stroke-opacity:0;}
	.st6{fill:#E6B359;stroke:#FFFFFF;stroke-width:0.3466;stroke-opacity:0;}
	.st7{fill:#E6B359;stroke:#FFFFFF;stroke-width:0.3584;stroke-opacity:0;}
	.st8{fill:#E6B359;stroke:#FFFFFF;stroke-width:0.3576;stroke-opacity:0;}
	.st9{fill:#6488C5;stroke:#FFFFFF;stroke-width:0.3221;stroke-opacity:0;}
	.st10{fill:#C8DCEB;stroke:#FFFFFF;stroke-width:0.3221;stroke-opacity:0;}
</style>
<g
   id="Logos"
   transform="matrix(0.26812452,0,0,0.26812452,-350.85034,-291.71444)">
		<g
   id="browserify"
   transform="translate(31,1095)">
			<g
   id="browserify-icon"
   transform="translate(70)">
				
				
				
				
				
				<path
   id="Shape-3"
   class="st0"
   d="m 1397.6878,-7.0187973 c -7.4,0 -17.2,4.9 -24.5,3.7 -2.5,-1.2 -6.1,-1.2 -8.6,-1.2 v 0 c -3.7,0 -6.1,1.2 -8.6,2.5 v 0 0 c -3.7,3.7 -9.8,3.7 -13.5,7.4 -2.5,2.5 -4.9,7.4000003 -8.6,12.3000003 v 0 c -11,12.3 -18.4,27 -22.1,39.2 -2.5,9.8 -2.5,23.3 -6.1,34.3 -1.2,2.5 -6.1,18.399997 -2.5,22.099997 2.5,2.5 13.5,3.7 15.9,0 1.2,-2.5 17.2,-7.4 22.1,-12.3 6.1,-6.099997 8.6,-18.399997 12.3,-28.199997 0,-1.2 1.2,-3.7 2.5,-4.9 2.5,3.7 3.7,7.4 4.9,9.8 2.5,4.9 3.7,11 6.1,17.2 -3.7,6.099997 -2.5,13.499997 0,17.199997 -11,3.7 -6.1,14.7 -6.1,15.9 -1.2,1.2 -2.5,1.2 -3.7,2.5 -1.2,1.2 -1.2,3.7 -1.2,4.9 0,1.2 0,3.7 0,4.9 -9.8,24.5 -19.6,56.4 -31.9,73.5 -3.7,1.2 -7.4,2.5 -11,3.7 -8.6,2.5 -28.2,6.1 -45.3,12.3 -1.2,1.2 -1.2,2.5 -2.5,2.5 -1.2,1.2 -4.9,1.2 -7.4,3.7 -1.2,1.2 -4.9,0 -6.1,1.2 -3.7,3.7 -9.8,6.1 -15.9,8.6 -1.2,0 -2.5,0 -3.7,0 -2.5,2.5 -7.4,4.9 -9.8,7.4 -4.9,4.9 -8.6,9.8 -13.5,14.7 -4.9,4.9 4.9,18.4 7.4,20.8 4.9,4.9 13.5,4.9 18.4,9.8 2.5,2.5 8.6,-1.2 11,1.2 1.2,0 1.2,0 1.2,0 7.4,3.7 20.8,6.1 28.2,8.6 11,3.7 19.6,13.5 31.9,17.2 8.6,2.5 18.4,3.7 28.2,6.1 3.7,1.2 8.6,0 12.3,1.2 7.4,2.5 13.5,4.9 19.6,7.4 2.5,1.2 4.9,0 7.4,0 4.9,1.2 9.8,1.2 14.7,3.7 8.6,2.5 19.6,-2.5 28.2,0 6.1,2.5 40.4,-1.2 44.1,-3.7 2.5,-2.5 9.8,0 12.3,-1.2 2.5,-1.2 9.8,0 11,-1.2 3.7,-3.7 12.3,-3.7 18.4,-7.4 2.5,-1.2 6.1,0 8.6,-1.2 1.2,-1.2 4.9,0 7.4,1.2 6.1,0 11,-1.2 17.2,-1.2 7.4,0 17.2,-3.7 28.2,-8.6 12.3,-2.5 25.7,-6.1 27,-6.1 4.9,-4.9 18.4,-3.7 23.3,-8.6 3.7,-3.7 8.6,-4.9 12.3,-8.6 3.7,-3.7 7.4,-7.4 12.3,-11 1.2,-2.5 2.5,-4.9 4.9,-6.1 1.2,-1.2 6.1,-18.4 6.1,-19.6 -2.5,-3.7 -4.9,-7.4 -8.6,-9.8 -1.2,0 -2.5,-1.2 -2.5,-1.2 -3.7,-3.7 -13.5,-4.9 -17.2,-8.6 -6.1,-6.1 -13.5,-11 -24.5,-13.5 -2.5,-1.2 -3.7,-2.5 -4.9,-3.7 -1.2,-1.2 -12.3,-3.7 -14.7,-6.1 -1.2,-1.2 -4.9,0 -6.1,-1.2 -2.5,-2.5 -14.7,-4.9 -24.5,-7.4 -1.2,0 -3.7,-1.2 -3.7,-1.2 0,0 -7.4,-1.2 -9.8,-3.7 0,0 -1.2,-9.8 -1.2,-11 0,0 -1.2,-2.5 0,-2.5 v 0 c -3.7,-25.7 -7.4,-53.9 -9.8,-56.4 -4.9,-3.7 -7.4,-24.5 -12.3,-28.2 -4.9,-3.7 -8.6,-8.599997 -12.3,-12.299997 v 0 c -1.2,-8.6 -3.7,-17.2 -4.9,-18.4 -1.2,-1.2 1.2,-6.1 -1.2,-7.4 -4.9,-6.1 -11,-28.2 -14.7,-31.9 -6.1,-3.7 -8.6,-11 -13.5,-15.9 -13.5,-11.0000003 -34.3,-27.0000003 -57.6,-25.7000003 -1.2,0 -2.5,-1.2 -2.5,-1.2 -2.7,-0.3 -3.9,-0.3 -6.3,-0.3 z"
   style="fill:#3d6a92" /><path
   id="Shape_1_-6"
   class="st1"
   d="m 1392.7878,132.6812 c -2.5,0 -3.7,0 -4.9,0 -2.5,1.2 -6.1,-1.2 -8.6,-1.2 -9.8,1.2 -17.2,4.9 -18.4,7.4 14.7,-3.7 30.6,4.9 38,14.7 2.5,3.7 -1.2,9.8 0,13.5 0,1.2 1.2,7.4 0,8.6 -2.5,2.5 -2.5,8.6 -3.7,11 -4.9,7.4 -8.6,12.3 -13.5,18.4 -3.7,6.1 -15.9,7.4 -22.1,9.8 -1.2,0 -3.7,0 -4.9,0 h -1.2 v 0 c 0,1.2 3.7,0 3.7,0 4.9,3.7 24.5,2.5 29.4,0 3.7,-1.2 6.1,-2.5 9.8,-3.7 3.7,-1.2 8.6,-8.6 11,-12.3 11,-12.3 15.9,-33.1 9.8,-49 -2.5,-8.6 -9.8,-12.3 -15.9,-17.2 -1.2,1.2 -4.9,0 -8.5,0 z"
   style="fill:#e6b359;stroke:#ffffff;stroke-width:0.3799;stroke-opacity:0" /><path
   id="Shape_2_-7"
   class="st1"
   d="m 1414.7878,116.7812 c -1.2,0 -1.2,6.1 -1.2,8.6 0,0 0,0 0,1.2 -3.7,1.2 -9.8,3.7 -9.8,4.9 v 0 0 h 1.2 c 1.2,0 7.4,2.5 9.8,3.7 0,2.5 1.2,3.7 1.2,6.1 0,1.2 0,3.7 0,3.7 v 0 0 c 0,0 1.2,-1.2 2.5,-3.7 v 0 c 1.2,-2.5 3.7,-4.9 4.9,-7.4 3.7,0 6.1,1.2 6.1,1.2 0,0 12.3,2.5 8.6,-1.2 0,0 0,0 -1.2,0 v 0 c 0,-1.2 -6.1,-3.7 -7.4,-4.9 l -1.2,-1.2 c 0,0 0,0 0,-1.2 v 0 c 1.2,-1.2 2.5,-2.5 2.5,-2.5 0,0 2.5,-3.7 0,-3.7 -1.2,0 -4.9,0 -9.8,2.5 l -1.2,-1.2 c 1.1,-1.3 -2.5,-4.9 -5,-4.9 z"
   style="fill:#e6b359;stroke:#ffffff;stroke-width:0.3799;stroke-opacity:0" /><path
   id="Shape_3_-5"
   class="st2"
   d="m 1386.5878,115.4812 c 0,0 -1.2,1.3 0,0 -1.2,0 0,0 0,0 -1.2,0 -4.9,4.9 -3.7,6.1 1.2,1.2 6.1,-1.2 8.6,0 0,0 3.7,6.1 3.7,3.7 1.2,-2.5 0,-7.4 0,-7.4 0,-1.2 3.7,-1.2 4.9,-1.2 1.2,0 2.5,-1.2 2.5,-1.2 v 0 c 0,0 -1.2,-1.2 -2.5,-1.2 -1.3,0 -3.7,0 -4.9,-1.2 v -3.7 c -1.2,-1.2 -1.2,-3.7 -1.2,-2.5 0,1.2 -1.2,1.2 -1.2,1.2 0,1.2 -2.5,3.7 -2.5,3.7 -1.2,0 -6.1,-1.2 -6.1,0 -1.3,-1.2 2.4,2.5 2.4,3.7 z"
   style="fill:#e6b359;stroke:#ffffff;stroke-width:0.2587;stroke-opacity:0" /><path
   id="Shape_4_-3"
   class="st2"
   d="m 1431.9878,162.0812 c 0,-1.2 -1.3,-1.2 0,0 -1.3,-1.2 0,0 0,0 -1.2,-1.2 -6.1,-3.7 -6.1,-1.2 0,1.2 2.5,6.1 3.7,8.6 0,0 -3.7,6.1 -2.5,6.1 2.5,0 6.1,-2.5 6.1,-2.5 1.2,0 2.5,3.7 2.5,3.7 0,0 1.2,1.2 2.5,1.2 v 0 c 0,0 0,-1.2 0,-2.5 0,-1.2 -1.2,-3.7 -1.2,-4.9 l 3.7,-1.2 c 1.2,-1.2 2.5,-2.5 2.5,-2.5 l -1.2,-1.2 c -1.2,0 -3.7,-1.2 -3.7,-1.2 0,-1.2 -1.2,-6.1 -2.5,-6.1 -1.4,-1.2 -2.6,2.5 -3.8,3.7 z"
   style="fill:#e6b359;stroke:#ffffff;stroke-width:0.2587;stroke-opacity:0" /><path
   id="Shape_5_-5"
   class="st3"
   d="m 1531.1878,203.6812 c -1.2,2.5 -6.1,12.3 -8.6,14.7 -2.5,2.4 -6.1,6.1 -8.6,8.6 -2.5,2.5 -7.4,6.1 -8.6,8.6 -3.7,3.7 -4.9,2.5 -9.8,6.1 -2.5,2.5 -6.1,2.5 -7.4,3.7 -1.3,1.2 -15.9,2.5 -18.4,4.9 -1.2,0 -3.7,-1.2 -3.7,0 -3.7,2.5 -23.3,2.5 -23.3,3.7 -2.5,2.5 -11,0 -14.7,1.2 -3.7,2.5 -11,0 -15.9,0 -2.5,0 -8.6,0 -15.9,0 -1.2,0 -2.5,0 -2.5,0 v 0 c -1.2,0 -2.5,0 -3.7,0 -1.2,0 -1.2,0 -2.5,0 v 0 c -4.9,0 -9.8,0 -9.8,-1.2 -4.9,-2.5 -8.6,-2.5 -14.7,-2.5 -8.6,0 -27,-9.8 -34.3,-13.5 -1.2,0 -3.7,-3.7 -4.9,-3.7 v -1.2 c -1.2,-1.2 -2.5,-4.9 -3.7,-7.4 0,-1.2 0,-3.7 0,-3.7 l 1.2,-4.9 c -1.2,0 -6.1,6.1 -7.4,8.6 v 0 c -1.2,1.2 -1.2,3.7 -1.2,7.4 0,11 6.1,11 12.3,17.2 1.2,1.2 4.9,0 4.9,1.2 1.2,1.2 2.5,2.5 4.9,2.5 -2.5,1.2 -7.4,1.2 -8.6,3.7 -1.2,1.2 -8.6,6.1 -11,7.4 0,0 -2.5,0 -3.7,1.2 -14.7,14.7 -30.6,24.5 -44.1,38 -1.2,1.2 -1.2,15.9 -1.2,18.4 0,4.9 -1.2,9.8 1.2,13.5 1.2,1.2 6.1,0 7.4,1.2 l 3.7,2.5 c 1.2,-1.2 -1.2,-8.6 -1.2,-11 0,-11 1.2,-20.8 7.4,-28.2 13.5,-12.3 31.9,-18.4 42.9,-30.6 3.7,-3.7 9.8,-4.9 14.7,-8.6 0,1.2 0,2.5 1.2,2.5 0,0 2.5,0 3.7,0 4.9,2.5 18.4,7.4 23.3,2.5 1.2,1.2 1.2,2.5 2.5,3.7 2.5,2.5 0,15.9 -1.2,18.4 -4.9,11 -8.6,40.4 -12.3,45.3 -1.2,1.2 1.2,8.6 1.2,9.8 1.2,3.7 -1.2,11 0,12.3 1.2,1.3 0,3.7 1.2,4.9 1.2,1.2 6.1,0 7.4,1.2 0,0 6.1,3.7 7.4,3.7 1.2,-1.2 -2.5,-11 -3.7,-12.3 -1.2,-1.2 1.2,-24.5 2.5,-24.5 1.2,-1.2 -1.2,-4.9 0,-4.9 1.2,-1.2 3.7,-38 3.7,-44.1 0,-1.2 2.5,-6.1 1.2,-7.4 0,0 -1.2,-2.5 -2.5,-6.1 2.5,0 4.9,0 4.9,1.2 1.2,1.2 24.5,0 28.2,0 14.7,0 39.2,-1.2 49,-3.7 3.7,-1.2 12.3,-1.2 17.2,-3.7 2.5,-1.2 12.3,-2.5 14.7,-2.5 3.7,-1.2 15.9,-3.7 19.6,-7.4 2.5,-2.5 11,-11 14.7,-12.3 3.7,-1.3 4.9,-8.6 7.4,-11 0,-2.5 6.1,-7.4 4.9,-9.8 -5,-8.7 -6.2,-13.6 -7.4,-13.6 z"
   style="fill:#e6b359;stroke:#ffffff;stroke-width:0.3221;stroke-opacity:0" />
			</g>
			<g
   id="Shape_6_"
   transform="translate(0,83)">
				
				
				
				
				
				
				
				
				
				
				
				
				
				
				
				
				
				
				
				
				
				
				
			</g>
		</g>
	</g>
</svg>
