<?xml version="1.0" encoding="UTF-8" standalone="no"?>
<svg
   width="100"
   height="100"
   version="1.1"
   id="svg22"
   sodipodi:docname="logo-parcel.svg"
   inkscape:version="1.1.1 (eb90963e84, 2021-10-02)"
   xmlns:inkscape="http://www.inkscape.org/namespaces/inkscape"
   xmlns:sodipodi="http://sodipodi.sourceforge.net/DTD/sodipodi-0.dtd"
   xmlns="http://www.w3.org/2000/svg"
   xmlns:svg="http://www.w3.org/2000/svg">
  <defs
     id="defs26" />
  <sodipodi:namedview
     id="namedview24"
     pagecolor="#ffffff"
     bordercolor="#666666"
     borderopacity="1.0"
     inkscape:pageshadow="2"
     inkscape:pageopacity="0.0"
     inkscape:pagecheckerboard="0"
     showgrid="false"
     fit-margin-top="0"
     fit-margin-left="0"
     fit-margin-right="0"
     fit-margin-bottom="0"
     inkscape:zoom="5.575"
     inkscape:cx="45.829596"
     inkscape:cy="50.134529"
     inkscape:window-width="1860"
     inkscape:window-height="1016"
     inkscape:window-x="60"
     inkscape:window-y="27"
     inkscape:window-maximized="1"
     inkscape:current-layer="svg22" />
  <g
     transform="scale(1.7241379)"
     id="g16">
    <path
       d="M 58,16 48,0 H 10 L 0,16 v 42 h 58 z"
       fill="#a98258"
       id="path2" />
    <path
       d="M 0,16 H 58 L 48,0 H 10 Z"
       fill="#daae86"
       id="path4" />
    <path
       d="m 23,52 v 6 h 12 v -6 l -2,2 -4,-4 -4,4 z"
       fill="#d8b18b"
       id="path6" />
    <path
       d="M 20,30 H 38 V 46 H 20 Z"
       fill="#e8d5b2"
       id="path8" />
    <path
       d="m 30,41 h -6 a 1,1 0 1 0 0,2 h 6 a 1,1 0 1 0 0,-2 z m 4,0 h -1 a 1,1 0 1 0 0,2 h 1 a 1,1 0 1 0 0,-2 z m -6,-6 h 6 a 1,1 0 1 0 0,-2 h -6 a 1,1 0 1 0 0,2 z m 6,2 h -2 a 1,1 0 1 0 0,2 h 2 a 1,1 0 1 0 0,-2 z m -10,2 h 2 a 1,1 0 1 0 0,-2 h -2 a 1,1 0 1 0 0,2 z m 0,-4 h 1 a 1,1 0 1 0 0,-2 h -1 a 1,1 0 1 0 0,2 z m 4.3,2.3 A 1.03,1.03 0 0 0 28,38 c 0,0.27 0.1,0.52 0.3,0.7 A 1.05,1.05 0 0 0 29,39 1.05,1.05 0 0 0 29.71,38.71 1.05,1.05 0 0 0 30,38 a 1.05,1.05 0 0 0 -0.29,-0.71 1.05,1.05 0 0 0 -1.42,0 z"
       fill="#d4c3a5"
       id="path10" />
    <path
       d="M 23,0 H 35 V 16 H 23 Z"
       fill="#f4d5bd"
       id="path12" />
    <path
       d="M 35,23 V 16 H 23 v 7 l 2,-2 4,4 4,-4 z"
       fill="#d8b18b"
       id="path14" />
  </g>
</svg>
