<?xml version="1.0" encoding="UTF-8" standalone="no"?>
<svg
   width="133.40894"
   height="100"
   viewBox="0 0 133.40894 100"
   version="1.1"
   id="svg4"
   sodipodi:docname="logo-sass.svg"
   inkscape:version="1.1.1 (eb90963e84, 2021-10-02)"
   xmlns:inkscape="http://www.inkscape.org/namespaces/inkscape"
   xmlns:sodipodi="http://sodipodi.sourceforge.net/DTD/sodipodi-0.dtd"
   xmlns="http://www.w3.org/2000/svg"
   xmlns:svg="http://www.w3.org/2000/svg">
  <defs
     id="defs8" />
  <sodipodi:namedview
     id="namedview6"
     pagecolor="#ffffff"
     bordercolor="#666666"
     borderopacity="1.0"
     inkscape:pageshadow="2"
     inkscape:pageopacity="0.0"
     inkscape:pagecheckerboard="0"
     showgrid="false"
     fit-margin-top="0"
     fit-margin-left="0"
     fit-margin-right="0"
     fit-margin-bottom="0"
     inkscape:zoom="3.1083236"
     inkscape:cx="70.616844"
     inkscape:cy="46.809799"
     inkscape:window-width="1860"
     inkscape:window-height="1016"
     inkscape:window-x="60"
     inkscape:window-y="27"
     inkscape:window-maximized="1"
     inkscape:current-layer="svg4" />
  <path
     fill="#cf649a"
     d="m 114.8448,57.422812 c -4.6645,0.02607 -8.7036,1.146582 -12.09124,2.81434 -1.25081,-2.475578 -2.50163,-4.63845 -2.7101,-6.254091 -0.234525,-1.876226 -0.52117,-3.02281 -0.234525,-5.263859 0.286645,-2.241048 1.589575,-5.420212 1.589575,-5.680799 -0.0261,-0.234527 -0.28664,-1.381111 -2.970687,-1.407169 -2.684047,-0.02607 -5.003271,0.521174 -5.263858,1.22476 -0.260587,0.703583 -0.781762,2.319224 -1.120524,3.98698 -0.469057,2.449521 -5.368095,11.12707 -8.156378,15.687345 -0.912055,-1.771995 -1.693814,-3.335515 -1.850168,-4.586333 -0.234526,-1.876228 -0.521174,-3.022813 -0.234526,-5.263861 0.286644,-2.241048 1.58958,-5.42021 1.58958,-5.680797 -0.02607,-0.234529 -0.286647,-1.381111 -2.970692,-1.407172 -2.684047,-0.02607 -5.003274,0.521175 -5.263861,1.224761 -0.260587,0.703585 -0.547232,2.371342 -1.120524,3.986983 -0.547232,1.615638 -7.061908,16.10428 -8.755725,19.882794 -0.859937,1.928343 -1.615641,3.465808 -2.162873,4.508157 -0.547234,1.042346 -0.02607,0.07818 -0.07818,0.182409 -0.469059,0.885997 -0.729646,1.381111 -0.729646,1.381111 v 0.02607 c -0.364821,0.651468 -0.755702,1.276875 -0.938113,1.276875 -0.130294,0 -0.390881,-1.745932 0.05212,-4.143334 0.964173,-5.029332 3.309455,-12.873001 3.283397,-13.159649 0,-0.130293 0.442999,-1.511405 -1.511405,-2.214988 -1.902286,-0.703586 -2.579811,0.469057 -2.736165,0.469057 -0.156351,0 -0.286645,0.416938 -0.286645,0.416938 0,0 2.110755,-8.8339 -4.039101,-8.8339 -3.856687,0 -9.172666,4.195452 -11.804595,8.026081 -1.667756,0.912055 -5.21174,2.840398 -8.964194,4.899038 -1.433229,0.781761 -2.918576,1.615638 -4.325745,2.371342 L 30.753357,65.579192 C 23.300567,57.631281 9.5155106,52.002599 10.088802,41.318529 10.297272,37.435782 11.652325,27.19471 36.56445,14.790764 56.968419,4.627868 73.307228,7.4161498 76.147627,13.618122 80.186728,22.478083 67.41796,38.947187 46.206172,41.318529 38.127973,42.230584 33.880403,39.103538 32.811997,37.930896 31.691472,36.706138 31.535119,36.65402 31.11818,36.88855 c -0.677525,0.36482 -0.260587,1.459287 0,2.110755 0.625408,1.641698 3.231279,4.560272 7.661261,6.019562 3.882747,1.276875 13.368118,1.980461 24.833947,-2.44952 C 76.460332,37.592133 86.492935,23.781018 83.5483,12.237011 80.551551,0.48453328 61.059635,-3.3721555 42.63613,3.1685802 31.665412,7.0773865 19.782642,13.175124 11.235386,21.175147 1.072489,30.660518 -0.54315086,38.947187 0.13437556,42.386935 2.505718,54.660589 19.41782,62.66061 26.193085,68.575939 c -0.338764,0.182409 -0.651469,0.36482 -0.938114,0.521174 -3.387632,1.667756 -16.2866932,8.416962 -19.5179731,15.557048 -3.6482192,8.0782 0.5732914,13.889293 3.3876319,14.671051 8.7036092,2.423458 17.6156872,-1.928343 22.4365492,-9.094487 4.794802,-7.166144 4.22151,-16.469103 2.006519,-20.716674 l -0.07818,-0.156351 2.65799,-1.563523 c 1.719874,-1.016291 3.41369,-1.954403 4.899035,-2.762222 -0.833877,2.267106 -1.433229,4.951153 -1.745932,8.85996 -0.364823,4.586333 1.511405,10.527717 3.986981,12.873001 1.094466,1.016289 2.397402,1.042349 3.205221,1.042349 2.866459,0 4.169394,-2.371342 5.602624,-5.211743 1.771992,-3.465806 3.335515,-7.478849 3.335515,-7.478849 0,0 -1.954404,10.866482 3.38763,10.866482 1.954404,0 3.908808,-2.527693 4.794802,-3.830629 v 0.02607 c 0,0 0.05212,-0.07818 0.156354,-0.260587 0.208469,-0.312705 0.312703,-0.495114 0.312703,-0.495114 v -0.05212 c 0.781761,-1.355054 2.527696,-4.456039 5.133567,-9.589604 3.361573,-6.618912 6.592852,-14.905583 6.592852,-14.905583 0,0 0.312705,2.032579 1.276878,5.368094 0.57329,1.980462 1.82411,4.143334 2.788281,6.254089 -0.781762,1.094467 -1.250818,1.719877 -1.250818,1.719877 l 0.02606,0.02607 c -0.62541,0.833879 -1.328996,1.719874 -2.058639,2.605871 -2.657987,3.179161 -5.837151,6.801324 -6.254089,7.84367 -0.495117,1.22476 -0.390881,2.136815 0.573292,2.866459 0.703583,0.521174 1.954401,0.62541 3.283397,0.521174 2.3974,-0.156351 4.065159,-0.755701 4.899035,-1.120524 1.302936,-0.469057 2.788283,-1.172643 4.221513,-2.214991 2.605869,-1.928344 4.195452,-4.664509 4.039098,-8.312729 -0.07818,-2.006519 -0.729643,-3.98698 -1.537463,-5.863208 0.234527,-0.338763 0.469057,-0.677526 0.703586,-1.042349 4.117274,-6.019562 7.296438,-12.638472 7.296438,-12.638472 0,0 0.312705,2.032577 1.276875,5.368092 0.495117,1.693817 1.485348,3.543984 2.371342,5.368094 -3.856686,3.153104 -6.280146,6.801324 -7.114026,9.198724 -1.537465,4.429981 -0.338762,6.436503 1.928344,6.905559 1.016291,0.20847 2.475578,-0.260587 3.570044,-0.729643 1.355051,-0.442999 2.99675,-1.198703 4.508152,-2.319227 2.60587,-1.928343 5.1075,-4.61239 4.97721,-8.23455 -0.0782,-1.667759 -0.52117,-3.309458 -1.12052,-4.87298 3.28339,-1.355052 7.53096,-2.136813 12.92512,-1.485345 11.59612,1.355051 13.88929,8.599373 13.44629,11.622183 -0.443,3.02281 -2.86646,4.690566 -3.67428,5.211741 -0.80782,0.495116 -1.06841,0.677528 -0.99023,1.042348 0.10424,0.547235 0.46906,0.521175 1.17264,0.416941 0.96418,-0.156354 6.09774,-2.475578 6.30621,-8.052141 0.3127,-7.166144 -6.48862,-14.983759 -18.5538,-14.905581 z M 25.411323,87.572735 c -3.83063,4.195453 -9.224783,5.785033 -11.517949,4.429982 -2.475577,-1.433229 -1.511405,-7.609143 3.205221,-12.065182 2.866458,-2.710105 6.592853,-5.211743 9.042372,-6.749206 0.547232,-0.338762 1.381111,-0.833879 2.371342,-1.433229 0.156353,-0.104233 0.260587,-0.156351 0.260587,-0.156351 0.182411,-0.104236 0.390881,-0.23453 0.59935,-0.364823 1.745934,6.358325 0.07818,11.934888 -3.960923,16.338809 z M 53.424434,68.523821 C 52.095441,71.78116 49.2811,80.146004 47.587284,79.676948 46.127997,79.286067 45.241999,72.9538 47.300639,66.699711 c 1.042348,-3.153104 3.257337,-6.905557 4.560272,-8.364844 2.110755,-2.345285 4.403922,-3.127046 4.977214,-2.162873 0.677526,1.250818 -2.579811,10.319248 -3.413691,12.351827 z m 23.114074,11.048891 c -0.57329,0.286647 -1.094464,0.495117 -1.328994,0.338763 -0.182411,-0.104234 0.23453,-0.495114 0.23453,-0.495114 0,0 2.892516,-3.100986 4.039098,-4.534215 0.651468,-0.83388 1.433229,-1.798053 2.267109,-2.892517 v 0.312703 c 0,3.752456 -3.596103,6.254092 -5.211743,7.27038 z m 17.824157,-4.065159 c -0.416939,-0.312702 -0.364821,-1.276875 1.042348,-4.299685 0.547232,-1.1987 1.79805,-3.205222 3.960923,-5.107507 0.260587,0.781761 0.416941,1.537462 0.390881,2.241048 -0.02607,4.690569 -3.361573,6.436501 -5.394152,7.166144 z"
     id="path2"
     style="stroke-width:0.260587" />
</svg>
