<?xml version="1.0" encoding="UTF-8" standalone="no"?>
<svg
   width="102.52932"
   height="100"
   viewBox="0 0 102.52932 100"
   fill="none"
   version="1.1"
   id="svg4"
   sodipodi:docname="logo-github.svg"
   inkscape:version="1.1.2 (0a00cf5339, 2022-02-04)"
   xmlns:inkscape="http://www.inkscape.org/namespaces/inkscape"
   xmlns:sodipodi="http://sodipodi.sourceforge.net/DTD/sodipodi-0.dtd"
   xmlns="http://www.w3.org/2000/svg"
   xmlns:svg="http://www.w3.org/2000/svg">
  <defs
     id="defs8" />
  <sodipodi:namedview
     id="namedview6"
     pagecolor="#ffffff"
     bordercolor="#666666"
     borderopacity="1.0"
     inkscape:pageshadow="2"
     inkscape:pageopacity="0.0"
     inkscape:pagecheckerboard="0"
     showgrid="false"
     inkscape:zoom="0.58281067"
     inkscape:cx="525.89977"
     inkscape:cy="555.06877"
     inkscape:window-width="1852"
     inkscape:window-height="1016"
     inkscape:window-x="0"
     inkscape:window-y="0"
     inkscape:window-maximized="1"
     inkscape:current-layer="svg4"
     fit-margin-top="0"
     fit-margin-left="0"
     fit-margin-right="0"
     fit-margin-bottom="0" />
  <path
     fill-rule="evenodd"
     clip-rule="evenodd"
     d="M 51.26469,0 C 22.94095,0 0,22.94095 0,51.264692 c 0,22.684626 14.67452,41.844805 35.05223,48.637377 2.56324,0.448561 3.52445,-1.089375 3.52445,-2.435073 0,-1.217536 -0.0641,-5.254631 -0.0641,-9.548049 -12.88025,2.370992 -16.21246,-3.139962 -17.23775,-6.023601 -0.57673,-1.47386 -3.07588,-6.023602 -5.25463,-7.241138 -1.79427,-0.961213 -4.3575,-3.332205 -0.0641,-3.396286 4.03709,-0.06408 6.92073,3.71669 7.88195,5.254631 4.61382,7.753785 11.98312,5.575035 14.93084,4.229337 0.44856,-3.332205 1.79426,-5.575035 3.26812,-6.856652 C 30.63062,72.60362 18.71157,68.182041 18.71157,48.573296 c 0,-5.575035 1.98651,-10.188858 5.25464,-13.777386 -0.51265,-1.281618 -2.30692,-6.536248 0.51264,-13.585144 0,0 4.29342,-1.345698 14.09779,5.254631 4.10118,-1.153455 8.45868,-1.730183 12.81618,-1.730183 4.35749,0 8.71499,0.576728 12.81617,1.730183 9.80437,-6.66441 14.097788,-5.254631 14.097788,-5.254631 2.819558,7.048896 1.025294,12.303526 0.512647,13.585144 3.268124,3.588528 5.254631,8.13827 5.254631,13.777386 0,19.672825 -11.983126,24.030324 -23.389516,25.311942 1.85835,1.602021 3.46037,4.677903 3.46037,9.483968 0,6.856652 -0.0641,12.367607 -0.0641,14.09779 0,1.345698 0.96121,2.947724 3.52445,2.435073 C 87.854807,93.109497 102.52932,73.885238 102.52932,51.264692 102.52932,22.94095 79.588376,0 51.26463,0 Z"
     fill="#1b1f23"
     id="path2"
     style="stroke-width:6.40809;fill:#808080" />
</svg>
