<?xml version="1.0" encoding="UTF-8" standalone="no"?>
<!-- Generator: Adobe Illustrator 15.0.2, SVG Export Plug-In . SVG Version: 6.00 Build 0)  -->

<svg
   version="1.1"
   id="Layer_1"
   x="0px"
   y="0px"
   width="162.5"
   height="100"
   viewBox="0 0 162.5 100"
   enable-background="new 0 0 208 128"
   xml:space="preserve"
   sodipodi:docname="logo-markdown.svg"
   inkscape:version="1.1.2 (0a00cf5339, 2022-02-04)"
   xmlns:inkscape="http://www.inkscape.org/namespaces/inkscape"
   xmlns:sodipodi="http://sodipodi.sourceforge.net/DTD/sodipodi-0.dtd"
   xmlns="http://www.w3.org/2000/svg"
   xmlns:svg="http://www.w3.org/2000/svg"><defs
   id="defs9" /><sodipodi:namedview
   id="namedview7"
   pagecolor="#ffffff"
   bordercolor="#666666"
   borderopacity="1.0"
   inkscape:pageshadow="2"
   inkscape:pageopacity="0.0"
   inkscape:pagecheckerboard="0"
   showgrid="false"
   fit-margin-top="0"
   fit-margin-left="0"
   fit-margin-right="0"
   fit-margin-bottom="0"
   inkscape:zoom="3.2163462"
   inkscape:cx="83.479819"
   inkscape:cy="71.665171"
   inkscape:window-width="1852"
   inkscape:window-height="1016"
   inkscape:window-x="0"
   inkscape:window-y="0"
   inkscape:window-maximized="1"
   inkscape:current-layer="Layer_1" />

<path
   fill="none"
   stroke="#ffffff"
   stroke-width="7.8125"
   d="m 11.71875,3.90625 h 139.0625 c 4.31484,0 7.8125,3.4976563 7.8125,7.8125 v 76.5625 c 0,4.314844 -3.49766,7.8125 -7.8125,7.8125 H 11.71875 c -4.3148437,0 -7.8125,-3.497656 -7.8125,-7.8125 v -76.5625 c 0,-4.3148437 3.4976563,-7.8125 7.8125,-7.8125 z"
   id="path2"
   style="stroke:#888888;stroke-opacity:1" /><path
   fill="#ffffff"
   d="m 23.4375,76.5625 v -53.125 h 15.625 l 15.625,19.53125 15.625,-19.53125 h 15.625 v 53.125 H 70.3125 V 46.09375 L 54.6875,65.625 39.0625,46.09375 V 76.5625 Z m 97.65625,0 -23.4375,-25.78125 h 15.625 V 23.4375 h 15.625 v 27.34375 h 15.625 z"
   id="path4"
   style="stroke-width:0.78125;fill:#808080;fill-opacity:1" />
</svg>
