<?xml version="1.0" encoding="UTF-8" standalone="no"?>
<svg
   width="250"
   height="250"
   viewBox="0 0 66.14583 66.145835"
   version="1.1"
   id="svg8"
   inkscape:version="1.2.1 (ef4d3fba62, 2022-07-19, custom)"
   sodipodi:docname="projects-portfolio.svg"
   inkscape:export-filename="../7e68ac5b/martings-512.png"
   inkscape:export-xdpi="96"
   inkscape:export-ydpi="96"
   xmlns:inkscape="http://www.inkscape.org/namespaces/inkscape"
   xmlns:sodipodi="http://sodipodi.sourceforge.net/DTD/sodipodi-0.dtd"
   xmlns:xlink="http://www.w3.org/1999/xlink"
   xmlns="http://www.w3.org/2000/svg"
   xmlns:svg="http://www.w3.org/2000/svg"
   xmlns:rdf="http://www.w3.org/1999/02/22-rdf-syntax-ns#"
   xmlns:cc="http://creativecommons.org/ns#"
   xmlns:dc="http://purl.org/dc/elements/1.1/">
  <defs
     id="defs2">
    <linearGradient
       inkscape:collect="always"
       id="linearGradient835">
      <stop
         style="stop-color:#ffff00;stop-opacity:1"
         offset="0"
         id="stop831" />
      <stop
         style="stop-color:#ffa500;stop-opacity:1;"
         offset="1"
         id="stop833" />
    </linearGradient>
    <linearGradient
       inkscape:collect="always"
       id="linearGradient872">
      <stop
         style="stop-color:#ff0000;stop-opacity:1"
         offset="0"
         id="stop868" />
      <stop
         style="stop-color:#000000;stop-opacity:1"
         offset="1"
         id="stop870" />
    </linearGradient>
    <radialGradient
       inkscape:collect="always"
       xlink:href="#linearGradient872"
       id="radialGradient880"
       cx="169.43675"
       cy="102.17422"
       fx="169.43675"
       fy="102.17422"
       r="66.145821"
       gradientTransform="matrix(-1.4003792,0.0583862,-0.07272383,-1.7442616,419.7642,220.66764)"
       gradientUnits="userSpaceOnUse" />
    <radialGradient
       inkscape:collect="always"
       xlink:href="#linearGradient835"
       id="radialGradient839"
       cx="143.73106"
       cy="117.40513"
       fx="143.73106"
       fy="117.40513"
       r="131.89479"
       gradientTransform="matrix(0.41894838,1.4776942,-1.0367689,0.29393535,157.50767,-211.01422)"
       gradientUnits="userSpaceOnUse" />
  </defs>
  <sodipodi:namedview
     id="base"
     pagecolor="#ffffff"
     bordercolor="#666666"
     borderopacity="1.0"
     inkscape:pageopacity="0.0"
     inkscape:pageshadow="2"
     inkscape:zoom="0.70710678"
     inkscape:cx="-50.204582"
     inkscape:cy="109.60155"
     inkscape:document-units="mm"
     inkscape:current-layer="layer1"
     showgrid="false"
     fit-margin-top="0"
     fit-margin-left="0"
     fit-margin-right="0"
     fit-margin-bottom="0"
     units="px"
     inkscape:window-width="1854"
     inkscape:window-height="1016"
     inkscape:window-x="0"
     inkscape:window-y="0"
     inkscape:window-maximized="1"
     inkscape:document-rotation="0"
     inkscape:showpageshadow="0"
     inkscape:pagecheckerboard="1"
     inkscape:deskcolor="#d1d1d1" />
  <metadata
     id="metadata5">
    <rdf:RDF>
      <cc:Work
         rdf:about="">
        <dc:format>image/svg+xml</dc:format>
        <dc:type
           rdf:resource="http://purl.org/dc/dcmitype/StillImage" />
      </cc:Work>
    </rdf:RDF>
  </metadata>
  <g
     inkscape:label="Calque 1"
     inkscape:groupmode="layer"
     id="layer1"
     transform="translate(-17.585981,32.436697)">
    <g
       id="g827"
       transform="matrix(0.48828125,0,0,0.48828125,8.9990762,-16.598466)">
      <g
         id="g339"
         transform="matrix(0.51200001,0,0,0.51199999,8.5819586,-15.829108)">
        <path
           style="opacity:1;fill:url(#radialGradient839);fill-opacity:1;stroke:none;stroke-width:15.9905;stroke-linecap:round;stroke-linejoin:round;stroke-miterlimit:4;stroke-dasharray:none;stroke-opacity:1;paint-order:stroke markers fill"
           d="M 282.16931,99.854971 A 132.29167,132.29167 0 0 1 149.87765,232.14664 132.29167,132.29167 0 0 1 17.585981,99.854971 132.29167,132.29167 0 0 1 149.87765,-32.436697 132.29167,132.29167 0 0 1 282.16931,99.854971 Z"
           id="path828"
           inkscape:connector-curvature="0" />
        <path
           style="fill:#28170b;fill-opacity:1;stroke-width:0.633604"
           d="m 87.34692,64.340848 c -4.27484,-0.06148 -13.35396,3.232212 -26.90986,9.885511 -15.79785,7.753652 -25.78461,12.096437 -28.40693,12.353056 -0.90095,0.08811 -1.58803,2.869578 -0.99078,4.010125 1.191,2.274391 2.93354,1.634777 24.8422,-9.11843 4.13656,-2.030259 7.84221,-3.946315 8.23454,-4.25757 1.05388,-0.83635 14.99722,-6.90014 17.02287,-7.403123 2.28755,-0.568334 2.19804,0.206801 -0.37364,3.235124 -1.76891,2.083162 -13.09658,17.181298 -18.78024,25.031254 -2.63993,3.646155 -7.36719,10.542405 -14.59888,21.296775 -3.78916,5.63499 -7.18648,10.42901 -7.5496,10.65358 -0.90213,0.55813 -0.83473,3.70867 0.0995,4.64359 1.16054,1.1613 2.24868,0.9305 5.20331,-1.10362 l 5e-4,-0.004 c 1.4893,-1.02533 3.55516,-2.80821 4.59064,-3.96163 1.03561,-1.15333 3.71613,-3.78022 5.95704,-5.83777 2.24091,-2.05756 5.3569,-4.92721 6.92455,-6.3772 14.50961,-13.42026 19.71895,-17.427664 26.48475,-20.373301 5.78501,-2.518656 6.23672,-2.039664 2.55316,2.706567 -12.90383,16.626694 -10.91276,21.138714 5.6804,12.872694 4.17897,-2.08182 7.73649,-3.78545 7.90544,-3.78545 0.16893,0 2.25803,-1.14047 4.64261,-2.53485 5.60251,-3.27601 6.14225,-3.2708 4.9722,0.051 -2.69504,7.64358 2.79244,9.75376 13.14587,5.05535 5.36827,-2.43618 5.75414,-2.42074 7.84159,0.31822 6.91055,9.066 24.42904,2.36325 18.64266,-7.13292 -3.69924,-6.070794 -10.96732,-5.973914 -23.12788,0.30881 -11.86539,6.13008 -13.26321,6.09655 -11.06831,-0.26525 2.32226,-6.731329 0.0143,-9.276303 -5.57844,-6.150544 -15.38693,8.599424 -23.9194,12.772484 -24.64029,12.051164 -0.47114,-0.47145 0.71098,-2.33498 5.70167,-8.98579 6.17905,-8.234981 5.16502,-12.825393 -2.36015,-10.686245 -8.91235,2.533366 -17.07882,8.170351 -32.89016,22.701275 -4.4616,4.10028 -8.23,7.337 -8.3741,7.1928 -0.27888,-0.27906 6.48402,-10.45175 14.24453,-21.425944 4.74428,-6.70878 13.65788,-18.27766 19.04501,-24.718479 5.6598,-6.766745 6.18908,-10.183359 1.91426,-10.244804 z m 122.31109,12.776187 c -1.50101,0 -2.25168,0.919237 -3.2277,3.951726 -1.63938,5.093566 -1.81516,5.131461 -21.88867,4.734657 -19.80989,-0.391289 -28.57075,0.02902 -29.42096,1.402529 -1.52993,2.477026 -0.77991,2.565784 23.17392,2.738243 23.07662,0.166329 23.07676,0.165975 21.19779,3.651829 -8.05081,14.936351 -9.3281,18.529591 -7.30514,20.553941 2.2449,2.24628 8.93143,-0.61162 15.91629,-6.80331 2.15017,-1.90596 3.56306,-0.99875 3.06241,1.96621 -1.19603,7.08408 2.97593,8.15315 10.03694,2.57197 3.78675,-2.99311 4.5625,-3.03421 5.70317,-0.30239 1.58922,3.80584 3.45137,3.7458 10.2052,-0.33059 4.22457,-2.54955 4.2247,-2.54952 6.48212,0.0895 2.72237,3.18262 4.29542,3.90679 9.67172,4.45355 8.05765,0.8194 12.67688,0.69877 13.0756,-0.34098 0.78577,-2.04907 -0.8935,-2.67469 -7.95641,-2.9659 -7.95391,-0.32791 -9.25078,-0.90754 -11.80867,-5.27507 -2.60706,-4.45147 -3.17192,-4.5284 -9.25105,-1.26247 -6.15809,3.30833 -6.01485,3.27716 -6.57715,1.43073 -1.35666,-4.45467 -3.54121,-4.56452 -9.76029,-0.49093 -5.49784,3.60103 -5.78623,3.56501 -5.28647,-0.65673 0.81981,-6.927074 -3.3261,-8.026014 -9.81424,-2.60165 -8.50209,7.10816 -10.332,6.81755 -6.10551,-0.96901 1.66612,-3.069494 3.70488,-6.936757 4.53027,-8.593828 2.28791,-4.59339 2.48954,-4.651607 19.18407,-5.529951 32.59721,-1.715154 44.97396,-2.862501 45.42089,-4.211056 0.52719,-1.590589 -7.45874,-1.573734 -40.66645,0.0861 -19.43303,0.971192 -19.21113,1.00584 -17.70335,-2.764971 1.18968,-2.975277 0.88465,-4.532242 -0.88833,-4.532242 z m 23.58863,14.156451 c -0.19966,0.0057 -0.39246,0.02892 -0.56665,0.0723 -0.69689,0.173589 -3.68974,0.918184 -6.65089,1.654428 -7.66645,1.90602 -9.42682,3.147592 -7.59464,5.356736 1.15646,1.394296 3.76567,0.970936 10.69317,-1.734604 5.575,-2.177321 7.4862,-3.820639 5.76898,-4.960823 -0.39209,-0.260124 -1.051,-0.404944 -1.64997,-0.387994 z m -58.79292,9.879564 c -1.82208,0.10159 -4.39926,1.68226 -7.80399,4.72772 -2.87302,2.5699 -6.09469,5.03379 -7.15913,5.47502 -3.57283,1.4809 -1.41658,6.0888 2.20673,4.71584 0.88469,-0.33519 3.59568,-2.55868 6.02484,-4.94102 4.90974,-4.81516 5.73483,-4.88982 5.73483,-0.52063 0,5.14964 5.98732,9.89197 7.29276,5.7764 v -4.9e-4 c 0.29781,-0.93929 -0.0366,-1.64725 -1.22436,-2.58088 -1.47634,-1.16203 -1.63464,-1.71232 -1.63464,-5.67742 0,-4.79047 -1.09438,-7.10515 -3.43704,-6.97454 z m -29.47985,2.44725 c 3.31785,-0.0706 6.31386,1.37545 6.31386,3.69389 0,4.18133 -7.6588,5.67729 -11.49688,2.24583 -2.34878,-2.10005 -2.16459,-3.35523 0.71016,-4.84304 1.38992,-0.71919 2.96475,-1.06459 4.47286,-1.09668 z"
           id="path826"
           inkscape:connector-curvature="0"
           sodipodi:nodetypes="cscsccccccccccccccccsccccccccccccccccccsccccccccccscccccccccccccccccccccsccccccccscccsccsccc" />
      </g>
    </g>
  </g>
</svg>
