<?xml version="1.0" encoding="UTF-8" standalone="no"?>
<svg
   width="250"
   height="250"
   viewBox="0 0 250 250"
   version="1.1"
   id="svg25"
   sodipodi:docname="projects-link-github-hover.svg"
   inkscape:version="1.1.2 (0a00cf5339, 2022-02-04)"
   xmlns:inkscape="http://www.inkscape.org/namespaces/inkscape"
   xmlns:sodipodi="http://sodipodi.sourceforge.net/DTD/sodipodi-0.dtd"
   xmlns="http://www.w3.org/2000/svg"
   xmlns:svg="http://www.w3.org/2000/svg"
   xmlns:rdf="http://www.w3.org/1999/02/22-rdf-syntax-ns#"
   xmlns:cc="http://creativecommons.org/ns#"
   xmlns:dc="http://purl.org/dc/elements/1.1/">
  <defs
     id="defs29" />
  <sodipodi:namedview
     id="namedview27"
     pagecolor="#505050"
     bordercolor="#ffffff"
     borderopacity="1"
     inkscape:showpageshadow="0"
     inkscape:pageopacity="0"
     inkscape:pagecheckerboard="1"
     inkscape:deskcolor="#505050"
     showgrid="false"
     inkscape:zoom="1.451042"
     inkscape:cx="100.61735"
     inkscape:cy="247.06383"
     inkscape:window-width="1854"
     inkscape:window-height="1016"
     inkscape:window-x="0"
     inkscape:window-y="0"
     inkscape:window-maximized="1"
     inkscape:current-layer="svg25"
     inkscape:pageshadow="0"
     fit-margin-top="0"
     fit-margin-left="0"
     fit-margin-right="0"
     fit-margin-bottom="0" />
  <title
     id="title18">github</title>
  <desc
     id="desc20">Created with sketchtool.</desc>
  <g
     id="g315"
     style="fill:#f5f5f5;fill-opacity:1"
     transform="matrix(12.5,0,0,12.5,-25,-25)">
    <g
       id="brand"
       stroke="none"
       stroke-width="1"
       fill="none"
       fill-rule="evenodd"
       style="fill:#f5f5f5;fill-opacity:1">
      <g
         id="github"
         fill="#000000"
         style="fill:#f5f5f5;fill-opacity:1">
        <path
           d="M 12,2 C 6.475,2 2,6.475 2,12 2,16.425 4.8625,20.1625 8.8375,21.4875 9.3375,21.575 9.525,21.275 9.525,21.0125 9.525,20.775 9.5125,19.9875 9.5125,19.15 7,19.6125 6.35,18.5375 6.15,17.975 6.0375,17.6875 5.55,16.8 5.125,16.5625 4.775,16.375 4.275,15.9125 5.1125,15.9 5.9,15.8875 6.4625,16.625 6.65,16.925 7.55,18.4375 8.9875,18.0125 9.5625,17.75 9.65,17.1 9.9125,16.6625 10.2,16.4125 7.975,16.1625 5.65,15.3 5.65,11.475 c 0,-1.0875 0.3875,-1.9875 1.025,-2.6875 -0.1,-0.25 -0.45,-1.275 0.1,-2.65 0,0 0.8375,-0.2625 2.75,1.025 0.8,-0.225 1.65,-0.3375 2.5,-0.3375 0.85,0 1.7,0.1125 2.5,0.3375 1.9125,-1.3 2.75,-1.025 2.75,-1.025 0.55,1.375 0.2,2.4 0.1,2.65 0.6375,0.7 1.025,1.5875 1.025,2.6875 0,3.8375 -2.3375,4.6875 -4.5625,4.9375 0.3625,0.3125 0.675,0.9125 0.675,1.85 0,1.3375 -0.0125,2.4125 -0.0125,2.75 0,0.2625 0.1875,0.575 0.6875,0.475 C 19.1375,20.1625 22,16.4125 22,12 22,6.475 17.525,2 12,2 Z"
           id="Shape"
           style="fill:#f5f5f5;fill-opacity:1" />
      </g>
    </g>
  </g>
  <metadata
     id="metadata871">
    <rdf:RDF>
      <cc:Work
         rdf:about="">
        <dc:title>github</dc:title>
      </cc:Work>
    </rdf:RDF>
  </metadata>
</svg>
