<?xml version="1.0" encoding="UTF-8" standalone="no"?>
<svg
   viewBox="0 0 83.333333 83.333328"
   width="250"
   height="249.99998"
   version="1.1"
   id="svg48"
   sodipodi:docname="social-instagram-hover.svg"
   inkscape:version="1.1.2 (0a00cf5339, 2022-02-04)"
   xmlns:inkscape="http://www.inkscape.org/namespaces/inkscape"
   xmlns:sodipodi="http://sodipodi.sourceforge.net/DTD/sodipodi-0.dtd"
   xmlns="http://www.w3.org/2000/svg"
   xmlns:svg="http://www.w3.org/2000/svg">
  <defs
     id="defs52" />
  <sodipodi:namedview
     id="namedview50"
     pagecolor="#505050"
     bordercolor="#ffffff"
     borderopacity="1"
     inkscape:showpageshadow="0"
     inkscape:pageopacity="0"
     inkscape:pagecheckerboard="1"
     inkscape:deskcolor="#505050"
     showgrid="false"
     inkscape:zoom="1.9347227"
     inkscape:cx="32.562806"
     inkscape:cy="80.890145"
     inkscape:window-width="1854"
     inkscape:window-height="1016"
     inkscape:window-x="0"
     inkscape:window-y="0"
     inkscape:window-maximized="1"
     inkscape:current-layer="svg48"
     inkscape:pageshadow="0" />
  <radialGradient
     id="yOrnnhliCrdS2gy~4tD8ma"
     cx="19.379999"
     cy="42.035"
     r="44.898998"
     gradientUnits="userSpaceOnUse"
     gradientTransform="matrix(2.3135932,0,0,2.3135932,-13.858416,-13.858416)">
    <stop
       offset="0"
       stop-color="#fd5"
       id="stop18" />
    <stop
       offset=".328"
       stop-color="#ff543f"
       id="stop20" />
    <stop
       offset=".348"
       stop-color="#fc5245"
       id="stop22" />
    <stop
       offset=".504"
       stop-color="#e64771"
       id="stop24" />
    <stop
       offset=".643"
       stop-color="#d53e91"
       id="stop26" />
    <stop
       offset=".761"
       stop-color="#cc39a4"
       id="stop28" />
    <stop
       offset=".841"
       stop-color="#c837ab"
       id="stop30" />
  </radialGradient>
  <radialGradient
     id="yOrnnhliCrdS2gy~4tD8mb"
     cx="11.786"
     cy="5.54"
     r="29.813"
     gradientTransform="matrix(2.3135932,0,0,1.5415471,-13.858416,-9.5805822)"
     gradientUnits="userSpaceOnUse">
    <stop
       offset="0"
       stop-color="#4168c9"
       id="stop35" />
    <stop
       offset=".999"
       stop-color="#4168c9"
       stop-opacity="0"
       id="stop37" />
  </radialGradient>
  <path
     id="path33"
     style="fill:#f5f5f5;fill-opacity:1;stroke-width:6.94077"
     d="M 194.28711 0 L 55.470703 0.1328125 C 24.931273 0.16751638 -0.027763104 25.17346 0 55.712891 L 0.1328125 194.5293 C 0.16751638 225.06873 25.17346 250.02776 55.712891 250 L 194.5293 249.86719 C 225.06873 249.83943 250.03471 224.83348 250 194.28711 L 249.86719 55.470703 C 249.83249 24.931273 224.82654 -0.027763104 194.28711 0 z M 83.359375 34.773438 L 166.64844 34.773438 C 193.43291 34.773438 215.23437 56.567965 215.23438 83.359375 L 215.23438 166.64844 C 215.23438 193.43985 193.43291 215.23437 166.64844 215.23438 L 83.359375 215.23438 C 56.574904 215.23438 34.773437 193.43985 34.773438 166.64844 L 34.773438 83.359375 C 34.773438 56.567965 56.574904 34.773437 83.359375 34.773438 z M 83.359375 48.654297 C 64.223644 48.654297 48.654297 64.223644 48.654297 83.359375 L 48.654297 166.64844 C 48.654297 185.78417 64.223644 201.35156 83.359375 201.35156 L 166.64844 201.35156 C 185.78417 201.35156 201.35156 185.78417 201.35156 166.64844 L 201.35156 83.359375 C 201.35156 64.223644 185.78417 48.654297 166.64844 48.654297 L 83.359375 48.654297 z M 177.05859 62.537109 A 10.41117 10.41117 0 0 1 187.4707 72.947266 A 10.41117 10.41117 0 0 1 177.05859 83.359375 A 10.41117 10.41117 0 0 1 166.64844 72.947266 A 10.41117 10.41117 0 0 1 177.05859 62.537109 z M 125.00391 76.417969 C 151.78837 76.417969 173.58984 98.212496 173.58984 125.00391 C 173.58984 151.79532 151.78837 173.58984 125.00391 173.58984 C 98.219438 173.58984 76.417969 151.79532 76.417969 125.00391 C 76.417969 98.212496 98.219438 76.417969 125.00391 76.417969 z M 125.00391 90.298828 C 105.86818 90.298828 90.298828 105.86818 90.298828 125.00391 C 90.298828 144.13963 105.86818 159.70703 125.00391 159.70703 C 144.13963 159.70703 159.70703 144.13963 159.70703 125.00391 C 159.70703 105.86818 144.13963 90.298828 125.00391 90.298828 z "
     transform="scale(0.33333333)" />
</svg>
