<?xml version="1.0" encoding="UTF-8" standalone="no"?>
<svg
   viewBox="0 0 83.333333 83.333328"
   width="250"
   height="249.99998"
   version="1.1"
   id="svg48"
   sodipodi:docname="social-instagram-logo.svg"
   inkscape:version="1.2.1 (ef4d3fba62, 2022-07-19, custom)"
   xmlns:inkscape="http://www.inkscape.org/namespaces/inkscape"
   xmlns:sodipodi="http://sodipodi.sourceforge.net/DTD/sodipodi-0.dtd"
   xmlns="http://www.w3.org/2000/svg"
   xmlns:svg="http://www.w3.org/2000/svg">
  <defs
     id="defs52" />
  <sodipodi:namedview
     id="namedview50"
     pagecolor="#505050"
     bordercolor="#ffffff"
     borderopacity="1"
     inkscape:showpageshadow="0"
     inkscape:pageopacity="0"
     inkscape:pagecheckerboard="1"
     inkscape:deskcolor="#505050"
     showgrid="false"
     inkscape:zoom="5.4722222"
     inkscape:cx="39.563452"
     inkscape:cy="54.182741"
     inkscape:window-width="1854"
     inkscape:window-height="1016"
     inkscape:window-x="0"
     inkscape:window-y="0"
     inkscape:window-maximized="1"
     inkscape:current-layer="svg48" />
  <radialGradient
     id="yOrnnhliCrdS2gy~4tD8ma"
     cx="19.379999"
     cy="42.035"
     r="44.898998"
     gradientUnits="userSpaceOnUse">
    <stop
       offset="0"
       stop-color="#fd5"
       id="stop18" />
    <stop
       offset=".328"
       stop-color="#ff543f"
       id="stop20" />
    <stop
       offset=".348"
       stop-color="#fc5245"
       id="stop22" />
    <stop
       offset=".504"
       stop-color="#e64771"
       id="stop24" />
    <stop
       offset=".643"
       stop-color="#d53e91"
       id="stop26" />
    <stop
       offset=".761"
       stop-color="#cc39a4"
       id="stop28" />
    <stop
       offset=".841"
       stop-color="#c837ab"
       id="stop30" />
  </radialGradient>
  <radialGradient
     id="yOrnnhliCrdS2gy~4tD8mb"
     cx="11.786"
     cy="5.54"
     r="29.813"
     gradientTransform="matrix(1,0,0,0.6663,0,1.849)"
     gradientUnits="userSpaceOnUse">
    <stop
       offset="0"
       stop-color="#4168c9"
       id="stop35" />
    <stop
       offset=".999"
       stop-color="#4168c9"
       stop-opacity="0"
       id="stop37" />
  </radialGradient>
  <g
     id="g2264"
     transform="matrix(2.3135932,0,0,2.3135932,-13.858416,-13.858416)">
    <path
       fill="url(#yOrnnhliCrdS2gy~4tD8ma)"
       d="m 34.017,41.99 -20,0.019 c -4.4,0.004 -8.003,-3.592 -8.008,-7.992 l -0.019,-20 C 5.986,9.617 9.582,6.014 13.982,6.009 l 20,-0.019 c 4.4,-0.004 8.003,3.592 8.008,7.992 l 0.019,20 c 0.005,4.401 -3.592,8.004 -7.992,8.008 z"
       id="path33"
       style="fill:url(#yOrnnhliCrdS2gy~4tD8ma)" />
    <path
       fill="url(#yOrnnhliCrdS2gy~4tD8mb)"
       d="m 34.017,41.99 -20,0.019 c -4.4,0.004 -8.003,-3.592 -8.008,-7.992 l -0.019,-20 C 5.986,9.617 9.582,6.014 13.982,6.009 l 20,-0.019 c 4.4,-0.004 8.003,3.592 8.008,7.992 l 0.019,20 c 0.005,4.401 -3.592,8.004 -7.992,8.008 z"
       id="path40"
       style="fill:url(#yOrnnhliCrdS2gy~4tD8mb)" />
    <path
       fill="#ffffff"
       d="m 24,31 c -3.859,0 -7,-3.14 -7,-7 0,-3.86 3.141,-7 7,-7 3.859,0 7,3.14 7,7 0,3.86 -3.141,7 -7,7 z m 0,-12 c -2.757,0 -5,2.243 -5,5 0,2.757 2.243,5 5,5 2.757,0 5,-2.243 5,-5 0,-2.757 -2.243,-5 -5,-5 z"
       id="path42" />
    <circle
       cx="31.5"
       cy="16.5"
       r="1.5"
       fill="#ffffff"
       id="circle44" />
    <path
       fill="#ffffff"
       d="M 30,37 H 18 c -3.859,0 -7,-3.14 -7,-7 V 18 c 0,-3.86 3.141,-7 7,-7 h 12 c 3.859,0 7,3.14 7,7 v 12 c 0,3.86 -3.141,7 -7,7 z M 18,13 c -2.757,0 -5,2.243 -5,5 v 12 c 0,2.757 2.243,5 5,5 h 12 c 2.757,0 5,-2.243 5,-5 V 18 c 0,-2.757 -2.243,-5 -5,-5 z"
       id="path46" />
  </g>
</svg>
