<?xml version="1.0" encoding="UTF-8" standalone="no"?>
<svg
   viewBox="0 0 83.333518 67.121663"
   width="250.00056"
   height="201.36499"
   version="1.1"
   id="svg25"
   sodipodi:docname="social-twitter.svg"
   inkscape:version="1.1.2 (0a00cf5339, 2022-02-04)"
   xmlns:inkscape="http://www.inkscape.org/namespaces/inkscape"
   xmlns:sodipodi="http://sodipodi.sourceforge.net/DTD/sodipodi-0.dtd"
   xmlns="http://www.w3.org/2000/svg"
   xmlns:svg="http://www.w3.org/2000/svg">
  <defs
     id="defs29" />
  <sodipodi:namedview
     id="namedview27"
     pagecolor="#505050"
     bordercolor="#ffffff"
     borderopacity="1"
     inkscape:showpageshadow="0"
     inkscape:pageopacity="0"
     inkscape:pagecheckerboard="1"
     inkscape:deskcolor="#505050"
     showgrid="false"
     inkscape:zoom="1.3680556"
     inkscape:cx="10.964467"
     inkscape:cy="126.09137"
     inkscape:window-width="1854"
     inkscape:window-height="1016"
     inkscape:window-x="0"
     inkscape:window-y="0"
     inkscape:window-maximized="1"
     inkscape:current-layer="svg25"
     inkscape:pageshadow="0"
     fit-margin-top="0"
     fit-margin-left="0"
     fit-margin-right="0"
     fit-margin-bottom="0" />
  <linearGradient
     id="_osn9zIN2f6RhTsY8WhY4a"
     x1="10.341"
     x2="40.798"
     y1="8.3120003"
     y2="38.769001"
     gradientUnits="userSpaceOnUse">
    <stop
       offset="0"
       stop-color="#2aa4f4"
       id="stop18" />
    <stop
       offset="1"
       stop-color="#007ad9"
       id="stop20" />
  </linearGradient>
  <g
     id="g336"
     transform="matrix(1.9741666,0,0,1.9741666,-7.6854306,-13.819166)">
    <path
       fill="url(#_osn9zIN2f6RhTsY8WhY4a)"
       d="m 46.105,11.02 c -1.551,0.687 -3.219,1.145 -4.979,1.362 C 42.915,11.32 44.292,9.626 44.938,7.624 43.264,8.605 41.409,9.326 39.436,9.706 37.86,8.036 35.612,7 33.122,7 c -4.783,0 -8.661,3.843 -8.661,8.582 0,0.671 0.079,1.324 0.226,1.958 C 17.491,17.179 11.108,13.758 6.838,8.566 6.088,9.835 5.666,11.32 5.666,12.888 c 0,2.979 1.525,5.602 3.851,7.147 -1.42,-0.043 -2.756,-0.438 -3.926,-1.072 0,0.026 0,0.064 0,0.101 0,4.163 2.986,7.63 6.944,8.419 -0.723,0.198 -1.488,0.308 -2.276,0.308 -0.559,0 -1.104,-0.063 -1.632,-0.158 1.102,3.402 4.299,5.889 8.087,5.963 C 13.75,35.894 10.017,37.27 5.958,37.27 5.257,37.27 4.571,37.23 3.893,37.148 7.73,39.577 12.283,41 17.171,41 33.098,41 41.812,27.921 41.812,16.574 c 0,-0.372 -0.012,-0.742 -0.029,-1.108 1.7,-1.201 3.165,-2.715 4.322,-4.446"
       id="path23"
       style="fill:url(#_osn9zIN2f6RhTsY8WhY4a)" />
  </g>
</svg>
