<?xml version="1.0" encoding="UTF-8" standalone="no"?>
<svg
   width="250"
   height="250"
   viewBox="0 0 250 250"
   version="1.1"
   id="svg200"
   sodipodi:docname="social-github-hover.svg"
   inkscape:version="1.1.2 (0a00cf5339, 2022-02-04)"
   xmlns:inkscape="http://www.inkscape.org/namespaces/inkscape"
   xmlns:sodipodi="http://sodipodi.sourceforge.net/DTD/sodipodi-0.dtd"
   xmlns="http://www.w3.org/2000/svg"
   xmlns:svg="http://www.w3.org/2000/svg">
  <defs
     id="defs204" />
  <sodipodi:namedview
     id="namedview202"
     pagecolor="#505050"
     bordercolor="#ffffff"
     borderopacity="1"
     inkscape:showpageshadow="0"
     inkscape:pageopacity="0"
     inkscape:pagecheckerboard="1"
     inkscape:deskcolor="#505050"
     showgrid="false"
     inkscape:zoom="1.4970776"
     inkscape:cx="85.499908"
     inkscape:cy="216.08766"
     inkscape:window-width="1854"
     inkscape:window-height="1016"
     inkscape:window-x="0"
     inkscape:window-y="0"
     inkscape:window-maximized="1"
     inkscape:current-layer="svg200"
     inkscape:pageshadow="0"
     fit-margin-top="0"
     fit-margin-left="0"
     fit-margin-right="0"
     fit-margin-bottom="0" />
  <path
     d="M 125,0 C 55.979167,0 0,55.96875 0,125 0,180.22917 35.8125,227.08333 85.489583,243.61458 91.729167,244.77083 93.75,240.89583 93.75,237.60417 v -23.27084 c -34.770833,7.5625 -42.010417,-14.75 -42.010417,-14.75 -5.6875,-14.44791 -13.885416,-18.29166 -13.885416,-18.29166 -11.34375,-7.76042 0.864583,-7.59375 0.864583,-7.59375 12.552083,0.875 19.15625,12.88541 19.15625,12.88541 11.145833,19.10417 29.239583,13.58334 36.375,10.38542 1.114583,-8.07292 4.354167,-13.59375 7.9375,-16.70833 -27.760417,-3.17709 -56.947917,-13.89584 -56.947917,-61.78125 0,-13.65625 4.885417,-24.802087 12.875,-33.552087 -1.291666,-3.15625 -5.572916,-15.875 1.21875,-33.083333 0,0 10.5,-3.354167 34.385417,12.8125 C 103.6875,61.885417 114.375,60.5 125,60.447917 c 10.625,0.05208 21.32292,1.4375 31.3125,4.208333 23.86458,-16.166667 34.34375,-12.8125 34.34375,-12.8125 6.80208,17.21875 2.52083,29.9375 1.22917,33.083333 8.02083,8.75 12.86458,19.906247 12.86458,33.552087 0,48.01041 -29.23958,58.58333 -57.07292,61.67708 4.47917,3.875 8.57292,11.47917 8.57292,23.14583 v 34.30209 c 0,3.32291 2,7.22916 8.34375,6 C 214.22917,227.05208 250,180.20833 250,125 250,55.96875 194.03125,0 125,0 Z"
     id="path198"
     style="fill:#ffffff;fill-opacity:1;stroke-width:10.4167" />
</svg>
