<?xml version="1.0" encoding="UTF-8" standalone="no"?>
<svg
   viewBox="0 0 83.333333 83.333333"
   width="250"
   height="250"
   version="1.1"
   id="svg26"
   sodipodi:docname="social-linkedin-hover.svg"
   inkscape:version="1.1.2 (0a00cf5339, 2022-02-04)"
   xmlns:inkscape="http://www.inkscape.org/namespaces/inkscape"
   xmlns:sodipodi="http://sodipodi.sourceforge.net/DTD/sodipodi-0.dtd"
   xmlns="http://www.w3.org/2000/svg"
   xmlns:svg="http://www.w3.org/2000/svg">
  <defs
     id="defs30" />
  <sodipodi:namedview
     id="namedview28"
     pagecolor="#505050"
     bordercolor="#ffffff"
     borderopacity="1"
     inkscape:showpageshadow="0"
     inkscape:pageopacity="0"
     inkscape:pagecheckerboard="1"
     inkscape:deskcolor="#505050"
     showgrid="false"
     inkscape:zoom="2.7361111"
     inkscape:cx="107.81726"
     inkscape:cy="133.21827"
     inkscape:window-width="1854"
     inkscape:window-height="1016"
     inkscape:window-x="0"
     inkscape:window-y="0"
     inkscape:window-maximized="1"
     inkscape:current-layer="g317"
     inkscape:pageshadow="0" />
  <g
     id="g317"
     transform="matrix(2.3148148,0,0,2.3148148,-13.888889,-13.888889)">
    <path
       id="path18"
       style="fill:#f5f5f5;fill-opacity:1;stroke-width:6.94444"
       d="M 34.722656 0 C 15.549045 4.7369516e-15 0 15.542101 0 34.722656 L 0 215.27734 C 4.7369516e-15 234.4579 15.549045 250 34.722656 250 L 215.27734 250 C 234.4579 250 250 234.4579 250 215.27734 L 250 34.722656 C 250 15.542101 234.4579 0 215.27734 0 L 34.722656 0 z M 59.125 41.666016 C 69.6875 41.666016 76.194227 49.167318 76.388672 59.021484 C 76.388672 68.660373 69.687717 76.388672 58.923828 76.388672 L 58.728516 76.388672 C 48.367405 76.388672 41.666016 68.667318 41.666016 59.021484 C 41.666016 49.167318 48.576389 41.666016 59.125 41.666016 z M 41.666016 90.277344 L 76.388672 90.277344 L 76.388672 208.33398 L 41.666016 208.33398 L 41.666016 90.277344 z M 97.222656 90.277344 L 131.94531 90.277344 L 131.94531 108.44531 C 136.95226 100.69531 144.7921 90.277344 164.84766 90.277344 C 189.69488 90.277344 208.32617 105.90213 208.32617 140.79102 L 208.33398 208.33398 L 173.61133 208.33398 L 173.61133 145.14648 C 173.61133 129.8826 165.10503 119.46484 151.44531 119.46484 C 141.0217 119.46484 135.3826 126.49349 132.64648 133.28516 C 131.64648 135.71571 131.94531 142.43815 131.94531 145.83398 L 131.94531 208.33398 L 97.222656 208.33398 L 97.222656 90.277344 z "
       transform="matrix(0.144,0,0,0.144,6.0000001,6.0000001)" />
  </g>
</svg>
