<?xml version="1.0" encoding="UTF-8" standalone="no"?>
<svg
   viewBox="0 0 83.333333 83.333333"
   width="250"
   height="250"
   version="1.1"
   id="svg26"
   sodipodi:docname="social-linkedin.svg"
   inkscape:version="1.1.2 (0a00cf5339, 2022-02-04)"
   xmlns:inkscape="http://www.inkscape.org/namespaces/inkscape"
   xmlns:sodipodi="http://sodipodi.sourceforge.net/DTD/sodipodi-0.dtd"
   xmlns="http://www.w3.org/2000/svg"
   xmlns:svg="http://www.w3.org/2000/svg">
  <defs
     id="defs30" />
  <sodipodi:namedview
     id="namedview28"
     pagecolor="#505050"
     bordercolor="#ffffff"
     borderopacity="1"
     inkscape:showpageshadow="0"
     inkscape:pageopacity="0"
     inkscape:pagecheckerboard="1"
     inkscape:deskcolor="#505050"
     showgrid="false"
     inkscape:zoom="2.7361111"
     inkscape:cx="108"
     inkscape:cy="133.21827"
     inkscape:window-width="1854"
     inkscape:window-height="1016"
     inkscape:window-x="0"
     inkscape:window-y="0"
     inkscape:window-maximized="1"
     inkscape:current-layer="g317"
     inkscape:pageshadow="0" />
  <g
     id="g317"
     transform="matrix(2.3148148,0,0,2.3148148,-13.888889,-13.888889)">
    <path
       fill="#0078d4"
       d="m 42,37 c 0,2.762 -2.238,5 -5,5 H 11 C 8.239,42 6,39.762 6,37 V 11 C 6,8.238 8.239,6 11,6 h 26 c 2.762,0 5,2.238 5,5 z"
       id="path18" />
    <path
       fill="#ffffff"
       d="m 12,19 h 5 v 17 h -5 z m 2.485,-2 H 14.457 C 12.965,17 12,15.888 12,14.499 12,13.08 12.995,12 14.514,12 16.035,12 16.972,13.08 17,14.499 17,15.887 16.035,17 14.485,17 Z M 36,36 h -5 v -9.099 c 0,-2.198 -1.225,-3.698 -3.192,-3.698 -1.501,0 -2.313,1.012 -2.707,1.99 C 24.957,25.543 25,26.511 25,27 v 9 H 20 V 19 h 5 v 2.616 C 25.721,20.5 26.85,19 29.738,19 c 3.578,0 6.261,2.25 6.261,7.274 z"
       id="path24" />
  </g>
</svg>
